{
  "source": "C:\\Users\\Peter\\Desktop\\stuff\\MIUN\\quantitative_research\\video_compression\\videos\\HEVC_CLASS_B\\Kimono_1920x1080_24.y4m",
  "output": "C:\\Users\\Peter\\Desktop\\stuff\\MIUN\\quantitative_research\\video_compression\\compressed_videos\\HEVC_CLASS_B\\hevc\\8\\Kimono_1920x1080_24_hevc.mp4",
  "codec": "hevc",
  "ok": "Input #0, yuv4mpegpipe, from 'C:\\Users\\Peter\\Desktop\\stuff\\MIUN\\quantitative_research\\video_compression\\videos\\HEVC_CLASS_B\\Kimono_1920x1080_24.y4m':\n  Duration: 00:00:10.00, start: 0.000000, bitrate: 597198 kb/s\n  Stream #0:0: Video: rawvideo (I420 / 0x30323449), yuv420p(progressive), 1920x1080, 24 fps, 24 tbr, 24 tbn\n[out#0/mp4 @ 000001fe1ac8b640] Codec AVOption b:a (set bitrate (in bits/s)) has not been used for any stream. The most likely reason is either wrong type (e.g. a video option with no video streams) or that it is a private option of some decoder which was not actually used for any stream.\nStream mapping:\n  Stream #0:0 -> #0:0 (rawvideo (native) -> hevc (libx265))\nPress [q] to stop, [?] for help\n[libx265 @ 000001fe1ac8ca80] Unknown option: \"aq-mode.\nx265 [info]: HEVC encoder version 4.1+190-8f11c33ac\nx265 [info]: build info [Windows][GCC 15.1.0][64 bit] 10bit\nx265 [info]: using cpu capabilities: MMX2 SSE2Fast LZCNT SSSE3 SSE4.2 AVX FMA3 BMI2 AVX2\nx265 [info]: Main 10 profile, Level-4 (Main tier)\nx265 [info]: Thread pool created using 12 threads\nx265 [info]: Slices                              : 1\nx265 [info]: frame threads / pool features       : 3 / wpp(17 rows)\nx265 [info]: Coding QT: max CU size, min CU size : 64 / 8\nx265 [info]: Residual QT: max TU size, max depth : 32 / 1 inter / 1 intra\nx265 [info]: ME / range / subpel / merge         : star / 57 / 3 / 3\nx265 [info]: Keyframe min / max / scenecut / bias  : 24 / 250 / 40 / 5.00 \nx265 [info]: Lookahead / bframes / badapt        : 25 / 4 / 2\nx265 [info]: b-pyramid / weightp / weightb       : 1 / 1 / 0\nx265 [info]: References / ref-limit  cu / depth  : 4 / on / on\nx265 [info]: AQ: mode / str / qg-size / cu-tree  : 2 / 1.0 / 32 / 1\nx265 [info]: Rate Control / qCompress            : ABR-8000 kbps / 0.60\nx265 [info]: VBV/HRD buffer / max-rate / init    : 8000 / 8000 / 0.750\nx265 [info]: tools: rect limit-modes rd=4 psy-rd=2.00 rdoq=2 psy-rdoq=1.00\nx265 [info]: tools: rskip mode=1 signhide tmvp strong-intra-smoothing lslices=4\nx265 [info]: tools: deblock sao dhdr10-info\nOutput #0, mp4, to 'C:\\Users\\Peter\\Desktop\\stuff\\MIUN\\quantitative_research\\video_compression\\compressed_videos\\HEVC_CLASS_B\\hevc\\8\\Kimono_1920x1080_24_hevc.mp4':\n  Metadata:\n    encoder         : Lavf62.3.100\n  Stream #0:0: Video: hevc (hev1 / 0x31766568), yuv420p10le(tv, progressive), 1920x1080, q=2-31, 8000 kb/s, 24 fps, 12288 tbn\n    Metadata:\n      encoder         : Lavc62.11.100 libx265\n    Side data:\n      cpb: bitrate max/min/avg: 8000000/0/8000000 buffer size: 8000000 vbv_delay: N/A\nframe=    0 fps=0.0 q=0.0 size=       0KiB time=N/A bitrate=N/A speed=N/A elapsed=0:00:00.51    \nframe=    0 fps=0.0 q=0.0 size=       0KiB time=N/A bitrate=N/A speed=N/A elapsed=0:00:01.03    \nframe=    0 fps=0.0 q=0.0 size=       0KiB time=N/A bitrate=N/A speed=N/A elapsed=0:00:01.56    \nframe=    0 fps=0.0 q=0.0 size=       0KiB time=N/A bitrate=N/A speed=N/A elapsed=0:00:02.06    \nframe=    0 fps=0.0 q=0.0 size=       0KiB time=N/A bitrate=N/A speed=N/A elapsed=0:00:02.58    \nframe=    0 fps=0.0 q=0.0 size=       0KiB time=N/A bitrate=N/A speed=N/A elapsed=0:00:03.10    \nframe=    0 fps=0.0 q=0.0 size=       0KiB time=N/A bitrate=N/A speed=N/A elapsed=0:00:03.61    \nframe=    0 fps=0.0 q=0.0 size=       0KiB time=N/A bitrate=N/A speed=N/A elapsed=0:00:04.13    \nframe=    0 fps=0.0 q=0.0 size=       0KiB time=N/A bitrate=N/A speed=N/A elapsed=0:00:04.65    \nframe=    0 fps=0.0 q=0.0 size=       0KiB time=N/A bitrate=N/A speed=N/A elapsed=0:00:05.17    \nframe=    0 fps=0.0 q=0.0 size=       0KiB time=N/A bitrate=N/A speed=N/A elapsed=0:00:05.67    \nframe=    0 fps=0.0 q=0.0 size=       0KiB time=N/A bitrate=N/A speed=N/A elapsed=0:00:06.20    \nframe=    0 fps=0.0 q=0.0 size=       0KiB time=N/A bitrate=N/A speed=N/A elapsed=0:00:06.70    \nframe=    1 fps=0.1 q=22.3 size=       0KiB time=-00:00:00.04 bitrate=N/A speed=N/A elapsed=0:00:07.23    \nframe=    1 fps=0.1 q=22.3 size=       0KiB time=-00:00:00.04 bitrate=N/A speed=N/A elapsed=0:00:07.76    \nframe=    2 fps=0.2 q=25.9 size=       0KiB time=00:00:00.00 bitrate=N/A speed=   0x elapsed=0:00:08.26    \nframe=    2 fps=0.2 q=25.9 size=       0KiB time=00:00:00.00 bitrate=N/A speed=   0x elapsed=0:00:08.78    \nframe=    3 fps=0.3 q=28.3 size=       0KiB time=00:00:00.04 bitrate=   8.4kbits/s speed=0.00448x elapsed=0:00:09.31    \nframe=    3 fps=0.3 q=28.3 size=       0KiB time=00:00:00.04 bitrate=   8.4kbits/s speed=0.00424x elapsed=0:00:09.82    \nframe=    3 fps=0.3 q=28.3 size=       0KiB time=00:00:00.04 bitrate=   8.4kbits/s speed=0.00403x elapsed=0:00:10.33    \nframe=    3 fps=0.3 q=28.3 size=       0KiB time=00:00:00.04 bitrate=   8.4kbits/s speed=0.00384x elapsed=0:00:10.84    \nframe=    4 fps=0.4 q=30.8 size=       0KiB time=00:00:00.08 bitrate=   4.2kbits/s speed=0.00733x elapsed=0:00:11.36    \nframe=    4 fps=0.3 q=30.8 size=       0KiB time=00:00:00.08 bitrate=   4.2kbits/s speed=0.00701x elapsed=0:00:11.89    \nframe=    4 fps=0.3 q=30.8 size=       0KiB time=00:00:00.08 bitrate=   4.2kbits/s speed=0.00671x elapsed=0:00:12.41    \nframe=    4 fps=0.3 q=30.8 size=       0KiB time=00:00:00.08 bitrate=   4.2kbits/s speed=0.00644x elapsed=0:00:12.93    \nframe=    5 fps=0.4 q=29.1 size=       0KiB time=00:00:00.12 bitrate=   2.8kbits/s speed=0.00929x elapsed=0:00:13.44    \nframe=    5 fps=0.4 q=29.1 size=       0KiB time=00:00:00.12 bitrate=   2.8kbits/s speed=0.00895x elapsed=0:00:13.96    \nframe=    6 fps=0.4 q=24.6 size=       0KiB time=00:00:00.16 bitrate=   2.1kbits/s speed=0.0115x elapsed=0:00:14.47    \nframe=    6 fps=0.4 q=24.6 size=       0KiB time=00:00:00.16 bitrate=   2.1kbits/s speed=0.0111x elapsed=0:00:14.98    \nframe=    7 fps=0.5 q=28.4 size=     256KiB time=00:00:00.20 bitrate=10068.0kbits/s speed=0.0134x elapsed=0:00:15.50    \nframe=    7 fps=0.4 q=28.4 size=     256KiB time=00:00:00.20 bitrate=10068.0kbits/s speed=0.013x elapsed=0:00:16.02    \nframe=    7 fps=0.4 q=28.4 size=     256KiB time=00:00:00.20 bitrate=10068.0kbits/s speed=0.0126x elapsed=0:00:16.53    \nframe=    8 fps=0.5 q=29.8 size=     256KiB time=00:00:00.25 bitrate=8390.0kbits/s speed=0.0147x elapsed=0:00:17.05    \nframe=    8 fps=0.5 q=29.8 size=     256KiB time=00:00:00.25 bitrate=8390.0kbits/s speed=0.0142x elapsed=0:00:17.57    \nframe=    8 fps=0.4 q=29.8 size=     256KiB time=00:00:00.25 bitrate=8390.0kbits/s speed=0.0138x elapsed=0:00:18.09    \nframe=    8 fps=0.4 q=29.8 size=     256KiB time=00:00:00.25 bitrate=8390.0kbits/s speed=0.0134x elapsed=0:00:18.59    \nframe=    9 fps=0.5 q=29.5 size=     256KiB time=00:00:00.29 bitrate=7191.4kbits/s speed=0.0153x elapsed=0:00:19.11    \nframe=    9 fps=0.5 q=29.5 size=     256KiB time=00:00:00.29 bitrate=7191.4kbits/s speed=0.0149x elapsed=0:00:19.62    \nframe=    9 fps=0.4 q=29.5 size=     256KiB time=00:00:00.29 bitrate=7191.4kbits/s speed=0.0145x elapsed=0:00:20.14    \nframe=   10 fps=0.5 q=29.1 size=     256KiB time=00:00:00.33 bitrate=6292.5kbits/s speed=0.0161x elapsed=0:00:20.65    \nframe=   10 fps=0.5 q=29.1 size=     256KiB time=00:00:00.33 bitrate=6292.5kbits/s speed=0.0157x elapsed=0:00:21.17    \nframe=   10 fps=0.5 q=29.1 size=     256KiB time=00:00:00.33 bitrate=6292.5kbits/s speed=0.0154x elapsed=0:00:21.70    \nframe=   11 fps=0.5 q=23.2 size=     256KiB time=00:00:00.37 bitrate=5593.3kbits/s speed=0.0169x elapsed=0:00:22.20    \nframe=   11 fps=0.5 q=23.2 size=     256KiB time=00:00:00.37 bitrate=5593.3kbits/s speed=0.0165x elapsed=0:00:22.72    \nframe=   12 fps=0.5 q=25.8 size=     256KiB time=00:00:00.41 bitrate=5034.0kbits/s speed=0.0179x elapsed=0:00:23.24    \nframe=   12 fps=0.5 q=25.8 size=     256KiB time=00:00:00.41 bitrate=5034.0kbits/s speed=0.0175x elapsed=0:00:23.75    \nframe=   12 fps=0.5 q=25.8 size=     256KiB time=00:00:00.41 bitrate=5034.0kbits/s speed=0.0172x elapsed=0:00:24.27    \nframe=   12 fps=0.5 q=25.8 size=     256KiB time=00:00:00.41 bitrate=5034.0kbits/s speed=0.0168x elapsed=0:00:24.79    \nframe=   12 fps=0.5 q=25.8 size=     256KiB time=00:00:00.41 bitrate=5034.0kbits/s speed=0.0165x elapsed=0:00:25.30    \nframe=   13 fps=0.5 q=28.7 size=     256KiB time=00:00:00.45 bitrate=4576.4kbits/s speed=0.0178x elapsed=0:00:25.82    \nframe=   13 fps=0.5 q=28.7 size=     256KiB time=00:00:00.45 bitrate=4576.4kbits/s speed=0.0174x elapsed=0:00:26.33    \nframe=   13 fps=0.5 q=28.7 size=     256KiB time=00:00:00.45 bitrate=4576.4kbits/s speed=0.0171x elapsed=0:00:26.85    \nframe=   14 fps=0.5 q=28.1 size=     256KiB time=00:00:00.50 bitrate=4195.0kbits/s speed=0.0183x elapsed=0:00:27.36    \nframe=   14 fps=0.5 q=28.1 size=     256KiB time=00:00:00.50 bitrate=4195.0kbits/s speed=0.0179x elapsed=0:00:27.87    \nframe=   15 fps=0.5 q=23.1 size=     256KiB time=00:00:00.54 bitrate=3872.3kbits/s speed=0.0191x elapsed=0:00:28.39    \nframe=   15 fps=0.5 q=23.1 size=     256KiB time=00:00:00.54 bitrate=3872.3kbits/s speed=0.0187x elapsed=0:00:28.91    \nframe=   15 fps=0.5 q=23.1 size=     256KiB time=00:00:00.54 bitrate=3872.3kbits/s speed=0.0184x elapsed=0:00:29.43    \nframe=   16 fps=0.5 q=25.0 size=     512KiB time=00:00:00.58 bitrate=7190.8kbits/s speed=0.0195x elapsed=0:00:29.94    \nframe=   16 fps=0.5 q=25.0 size=     512KiB time=00:00:00.58 bitrate=7190.8kbits/s speed=0.0192x elapsed=0:00:30.45    \nframe=   16 fps=0.5 q=25.0 size=     512KiB time=00:00:00.58 bitrate=7190.8kbits/s speed=0.0188x elapsed=0:00:30.97    \nframe=   16 fps=0.5 q=25.0 size=     512KiB time=00:00:00.58 bitrate=7190.8kbits/s speed=0.0185x elapsed=0:00:31.49    \nframe=   17 fps=0.5 q=28.0 size=     512KiB time=00:00:00.62 bitrate=6711.4kbits/s speed=0.0195x elapsed=0:00:32.00    \nframe=   17 fps=0.5 q=28.0 size=     512KiB time=00:00:00.62 bitrate=6711.4kbits/s speed=0.0192x elapsed=0:00:32.52    \nframe=   17 fps=0.5 q=28.0 size=     512KiB time=00:00:00.62 bitrate=6711.4kbits/s speed=0.0189x elapsed=0:00:33.03    \nframe=   18 fps=0.5 q=27.9 size=     512KiB time=00:00:00.66 bitrate=6292.0kbits/s speed=0.0199x elapsed=0:00:33.55    \nframe=   18 fps=0.5 q=27.9 size=     512KiB time=00:00:00.66 bitrate=6292.0kbits/s speed=0.0196x elapsed=0:00:34.07    \nframe=   18 fps=0.5 q=27.9 size=     512KiB time=00:00:00.66 bitrate=6292.0kbits/s speed=0.0193x elapsed=0:00:34.59    \nframe=   19 fps=0.5 q=23.0 size=     512KiB time=00:00:00.70 bitrate=5921.9kbits/s speed=0.0202x elapsed=0:00:35.12    \nframe=   19 fps=0.5 q=23.0 size=     512KiB time=00:00:00.70 bitrate=5921.9kbits/s speed=0.0199x elapsed=0:00:35.65    \nframe=   20 fps=0.6 q=23.3 size=     512KiB time=00:00:00.75 bitrate=5592.9kbits/s speed=0.0207x elapsed=0:00:36.15    \nframe=   20 fps=0.5 q=23.3 size=     512KiB time=00:00:00.75 bitrate=5592.9kbits/s speed=0.0204x elapsed=0:00:36.67    \nframe=   20 fps=0.5 q=23.3 size=     512KiB time=00:00:00.75 bitrate=5592.9kbits/s speed=0.0202x elapsed=0:00:37.20    \nframe=   21 fps=0.6 q=28.0 size=     768KiB time=00:00:00.79 bitrate=7947.5kbits/s speed=0.021x elapsed=0:00:37.71    \nframe=   21 fps=0.5 q=28.0 size=     768KiB time=00:00:00.79 bitrate=7947.5kbits/s speed=0.0207x elapsed=0:00:38.22    \nframe=   21 fps=0.5 q=28.0 size=     768KiB time=00:00:00.79 bitrate=7947.5kbits/s speed=0.0204x elapsed=0:00:38.74    \nframe=   21 fps=0.5 q=28.0 size=     768KiB time=00:00:00.79 bitrate=7947.5kbits/s speed=0.0202x elapsed=0:00:39.25    \nframe=   22 fps=0.6 q=27.9 size=     768KiB time=00:00:00.83 bitrate=7550.2kbits/s speed=0.021x elapsed=0:00:39.76    \nframe=   22 fps=0.5 q=27.9 size=     768KiB time=00:00:00.83 bitrate=7550.2kbits/s speed=0.0207x elapsed=0:00:40.28    \nframe=   22 fps=0.5 q=27.9 size=     768KiB time=00:00:00.83 bitrate=7550.2kbits/s speed=0.0204x elapsed=0:00:40.80    \nframe=   23 fps=0.6 q=27.9 size=     768KiB time=00:00:00.87 bitrate=7190.6kbits/s speed=0.0212x elapsed=0:00:41.32    \nframe=   23 fps=0.5 q=27.9 size=     768KiB time=00:00:00.87 bitrate=7190.6kbits/s speed=0.0209x elapsed=0:00:41.83    \nframe=   23 fps=0.5 q=27.9 size=     768KiB time=00:00:00.87 bitrate=7190.6kbits/s speed=0.0207x elapsed=0:00:42.35    \nframe=   24 fps=0.6 q=22.8 size=     768KiB time=00:00:00.91 bitrate=6863.8kbits/s speed=0.0214x elapsed=0:00:42.86    \nframe=   24 fps=0.6 q=22.8 size=     768KiB time=00:00:00.91 bitrate=6863.8kbits/s speed=0.0211x elapsed=0:00:43.37    \nframe=   25 fps=0.6 q=23.2 size=     768KiB time=00:00:00.95 bitrate=6565.4kbits/s speed=0.0218x elapsed=0:00:43.90    \nframe=   25 fps=0.6 q=23.2 size=     768KiB time=00:00:00.95 bitrate=6565.4kbits/s speed=0.0216x elapsed=0:00:44.41    \nframe=   25 fps=0.6 q=23.2 size=     768KiB time=00:00:00.95 bitrate=6565.4kbits/s speed=0.0213x elapsed=0:00:44.93    \nframe=   26 fps=0.6 q=27.9 size=     768KiB time=00:00:01.00 bitrate=6291.8kbits/s speed=0.022x elapsed=0:00:45.44    \nframe=   26 fps=0.6 q=27.9 size=     768KiB time=00:00:01.00 bitrate=6291.8kbits/s speed=0.0218x elapsed=0:00:45.96    \nframe=   26 fps=0.6 q=27.9 size=     768KiB time=00:00:01.00 bitrate=6291.8kbits/s speed=0.0215x elapsed=0:00:46.48    \nframe=   26 fps=0.6 q=27.9 size=     768KiB time=00:00:01.00 bitrate=6291.8kbits/s speed=0.0213x elapsed=0:00:47.00    \nframe=   27 fps=0.6 q=27.4 size=     768KiB time=00:00:01.04 bitrate=6040.1kbits/s speed=0.0219x elapsed=0:00:47.53    \nframe=   27 fps=0.6 q=27.4 size=     768KiB time=00:00:01.04 bitrate=6040.1kbits/s speed=0.0217x elapsed=0:00:48.03    \nframe=   27 fps=0.6 q=27.4 size=     768KiB time=00:00:01.04 bitrate=6040.1kbits/s speed=0.0215x elapsed=0:00:48.55    \nframe=   28 fps=0.6 q=27.8 size=    1024KiB time=00:00:01.08 bitrate=7743.7kbits/s speed=0.0221x elapsed=0:00:49.07    \nframe=   28 fps=0.6 q=27.8 size=    1024KiB time=00:00:01.08 bitrate=7743.7kbits/s speed=0.0218x elapsed=0:00:49.59    \nframe=   29 fps=0.6 q=22.8 size=    1024KiB time=00:00:01.12 bitrate=7456.9kbits/s speed=0.0225x elapsed=0:00:50.09    \nframe=   29 fps=0.6 q=22.8 size=    1024KiB time=00:00:01.12 bitrate=7456.9kbits/s speed=0.0222x elapsed=0:00:50.61    \nframe=   30 fps=0.6 q=24.7 size=    1024KiB time=00:00:01.16 bitrate=7190.5kbits/s speed=0.0228x elapsed=0:00:51.12    \nframe=   30 fps=0.6 q=24.7 size=    1024KiB time=00:00:01.16 bitrate=7190.5kbits/s speed=0.0226x elapsed=0:00:51.65    \nframe=   30 fps=0.6 q=24.7 size=    1024KiB time=00:00:01.16 bitrate=7190.5kbits/s speed=0.0224x elapsed=0:00:52.17    \nframe=   30 fps=0.6 q=24.7 size=    1024KiB time=00:00:01.16 bitrate=7190.5kbits/s speed=0.0221x elapsed=0:00:52.70    \nframe=   30 fps=0.6 q=24.7 size=    1024KiB time=00:00:01.16 bitrate=7190.5kbits/s speed=0.0219x elapsed=0:00:53.23    \nframe=   30 fps=0.6 q=24.7 size=    1024KiB time=00:00:01.16 bitrate=7190.5kbits/s speed=0.0217x elapsed=0:00:53.76    \nframe=   30 fps=0.6 q=24.7 size=    1024KiB time=00:00:01.16 bitrate=7190.5kbits/s speed=0.0215x elapsed=0:00:54.28    \nframe=   30 fps=0.5 q=24.7 size=    1024KiB time=00:00:01.16 bitrate=7190.5kbits/s speed=0.0213x elapsed=0:00:54.79    \nframe=   30 fps=0.5 q=24.7 size=    1024KiB time=00:00:01.16 bitrate=7190.5kbits/s speed=0.0211x elapsed=0:00:55.35    \nframe=   30 fps=0.5 q=24.7 size=    1024KiB time=00:00:01.16 bitrate=7190.5kbits/s speed=0.0209x elapsed=0:00:55.86    \nframe=   30 fps=0.5 q=24.7 size=    1024KiB time=00:00:01.16 bitrate=7190.5kbits/s speed=0.0207x elapsed=0:00:56.38    \nframe=   31 fps=0.5 q=27.7 size=    1024KiB time=00:00:01.20 bitrate=6942.6kbits/s speed=0.0212x elapsed=0:00:56.90    \nframe=   31 fps=0.5 q=27.7 size=    1024KiB time=00:00:01.20 bitrate=6942.6kbits/s speed=0.021x elapsed=0:00:57.41    \nframe=   31 fps=0.5 q=27.7 size=    1024KiB time=00:00:01.20 bitrate=6942.6kbits/s speed=0.0209x elapsed=0:00:57.93    \nframe=   31 fps=0.5 q=27.7 size=    1024KiB time=00:00:01.20 bitrate=6942.6kbits/s speed=0.0207x elapsed=0:00:58.46    \nframe=   31 fps=0.5 q=27.7 size=    1024KiB time=00:00:01.20 bitrate=6942.6kbits/s speed=0.0205x elapsed=0:00:58.99    \nframe=   31 fps=0.5 q=27.7 size=    1024KiB time=00:00:01.20 bitrate=6942.6kbits/s speed=0.0203x elapsed=0:00:59.52    \nframe=   31 fps=0.5 q=27.7 size=    1024KiB time=00:00:01.20 bitrate=6942.6kbits/s speed=0.0201x elapsed=0:01:00.05    \nframe=   31 fps=0.5 q=27.7 size=    1024KiB time=00:00:01.20 bitrate=6942.6kbits/s speed=0.0199x elapsed=0:01:00.57    \nframe=   32 fps=0.5 q=27.6 size=    1024KiB time=00:00:01.25 bitrate=6711.2kbits/s speed=0.0205x elapsed=0:01:01.09    \nframe=   32 fps=0.5 q=27.6 size=    1024KiB time=00:00:01.25 bitrate=6711.2kbits/s speed=0.0203x elapsed=0:01:01.62    \nframe=   32 fps=0.5 q=27.6 size=    1024KiB time=00:00:01.25 bitrate=6711.2kbits/s speed=0.0201x elapsed=0:01:02.15    \nframe=   32 fps=0.5 q=27.6 size=    1024KiB time=00:00:01.25 bitrate=6711.2kbits/s speed=0.0199x elapsed=0:01:02.68    \nframe=   32 fps=0.5 q=27.6 size=    1024KiB time=00:00:01.25 bitrate=6711.2kbits/s speed=0.0198x elapsed=0:01:03.21    \nframe=   32 fps=0.5 q=27.6 size=    1024KiB time=00:00:01.25 bitrate=6711.2kbits/s speed=0.0196x elapsed=0:01:03.76    \nframe=   33 fps=0.5 q=22.6 size=    1024KiB time=00:00:01.29 bitrate=6494.7kbits/s speed=0.0201x elapsed=0:01:04.29    \nframe=   33 fps=0.5 q=22.6 size=    1024KiB time=00:00:01.29 bitrate=6494.7kbits/s speed=0.0199x elapsed=0:01:04.82    \nframe=   33 fps=0.5 q=22.6 size=    1024KiB time=00:00:01.29 bitrate=6494.7kbits/s speed=0.0198x elapsed=0:01:05.37    \nframe=   33 fps=0.5 q=22.6 size=    1024KiB time=00:00:01.29 bitrate=6494.7kbits/s speed=0.0196x elapsed=0:01:05.91    \nframe=   33 fps=0.5 q=22.6 size=    1024KiB time=00:00:01.29 bitrate=6494.7kbits/s speed=0.0194x elapsed=0:01:06.42    \nframe=   33 fps=0.5 q=22.6 size=    1024KiB time=00:00:01.29 bitrate=6494.7kbits/s speed=0.0193x elapsed=0:01:06.94    \nframe=   33 fps=0.5 q=22.6 size=    1024KiB time=00:00:01.29 bitrate=6494.7kbits/s speed=0.0191x elapsed=0:01:07.48    \nframe=   33 fps=0.5 q=22.6 size=    1024KiB time=00:00:01.29 bitrate=6494.7kbits/s speed=0.019x elapsed=0:01:08.01    \nframe=   33 fps=0.5 q=22.6 size=    1024KiB time=00:00:01.29 bitrate=6494.7kbits/s speed=0.0188x elapsed=0:01:08.52    \nframe=   33 fps=0.5 q=22.6 size=    1024KiB time=00:00:01.29 bitrate=6494.7kbits/s speed=0.0187x elapsed=0:01:09.05    \nframe=   34 fps=0.5 q=24.6 size=    1280KiB time=00:00:01.33 bitrate=7864.6kbits/s speed=0.0192x elapsed=0:01:09.59    \nframe=   34 fps=0.5 q=24.6 size=    1280KiB time=00:00:01.33 bitrate=7864.6kbits/s speed=0.019x elapsed=0:01:10.10    \nframe=   34 fps=0.5 q=24.6 size=    1280KiB time=00:00:01.33 bitrate=7864.6kbits/s speed=0.0189x elapsed=0:01:10.62    \nframe=   34 fps=0.5 q=24.6 size=    1280KiB time=00:00:01.33 bitrate=7864.6kbits/s speed=0.0187x elapsed=0:01:11.16    \nframe=   34 fps=0.5 q=24.6 size=    1280KiB time=00:00:01.33 bitrate=7864.6kbits/s speed=0.0186x elapsed=0:01:11.68    \nframe=   34 fps=0.5 q=24.6 size=    1280KiB time=00:00:01.33 bitrate=7864.6kbits/s speed=0.0185x elapsed=0:01:12.20    \nframe=   34 fps=0.5 q=24.6 size=    1280KiB time=00:00:01.33 bitrate=7864.6kbits/s speed=0.0183x elapsed=0:01:12.72    \nframe=   34 fps=0.5 q=24.6 size=    1280KiB time=00:00:01.33 bitrate=7864.6kbits/s speed=0.0182x elapsed=0:01:13.25    \nframe=   34 fps=0.5 q=24.6 size=    1280KiB time=00:00:01.33 bitrate=7864.6kbits/s speed=0.0181x elapsed=0:01:13.76    \nframe=   34 fps=0.5 q=24.6 size=    1280KiB time=00:00:01.33 bitrate=7864.6kbits/s speed=0.0179x elapsed=0:01:14.29    \nframe=   34 fps=0.5 q=24.6 size=    1280KiB time=00:00:01.33 bitrate=7864.6kbits/s speed=0.0178x elapsed=0:01:14.82    \nframe=   35 fps=0.5 q=27.7 size=    1280KiB time=00:00:01.37 bitrate=7626.3kbits/s speed=0.0182x elapsed=0:01:15.35    \nframe=   35 fps=0.5 q=27.7 size=    1280KiB time=00:00:01.37 bitrate=7626.3kbits/s speed=0.0181x elapsed=0:01:15.89    \nframe=   35 fps=0.5 q=27.7 size=    1280KiB time=00:00:01.37 bitrate=7626.3kbits/s speed=0.018x elapsed=0:01:16.42    \nframe=   35 fps=0.5 q=27.7 size=    1280KiB time=00:00:01.37 bitrate=7626.3kbits/s speed=0.0179x elapsed=0:01:16.94    \nframe=   35 fps=0.5 q=27.7 size=    1280KiB time=00:00:01.37 bitrate=7626.3kbits/s speed=0.0177x elapsed=0:01:17.49    \nframe=   35 fps=0.4 q=27.7 size=    1280KiB time=00:00:01.37 bitrate=7626.3kbits/s speed=0.0176x elapsed=0:01:18.01    \nframe=   36 fps=0.5 q=27.7 size=    1280KiB time=00:00:01.41 bitrate=7402.0kbits/s speed=0.018x elapsed=0:01:18.56    \nframe=   36 fps=0.5 q=27.7 size=    1280KiB time=00:00:01.41 bitrate=7402.0kbits/s speed=0.0179x elapsed=0:01:19.09    \nframe=   36 fps=0.5 q=27.7 size=    1280KiB time=00:00:01.41 bitrate=7402.0kbits/s speed=0.0178x elapsed=0:01:19.62    \nframe=   36 fps=0.4 q=27.7 size=    1280KiB time=00:00:01.41 bitrate=7402.0kbits/s speed=0.0177x elapsed=0:01:20.17    \nframe=   36 fps=0.4 q=27.7 size=    1280KiB time=00:00:01.41 bitrate=7402.0kbits/s speed=0.0176x elapsed=0:01:20.69    \nframe=   36 fps=0.4 q=27.7 size=    1280KiB time=00:00:01.41 bitrate=7402.0kbits/s speed=0.0174x elapsed=0:01:21.22    \nframe=   36 fps=0.4 q=27.7 size=    1280KiB time=00:00:01.41 bitrate=7402.0kbits/s speed=0.0173x elapsed=0:01:21.74    \nframe=   36 fps=0.4 q=27.7 size=    1280KiB time=00:00:01.41 bitrate=7402.0kbits/s speed=0.0172x elapsed=0:01:22.30    \nframe=   36 fps=0.4 q=27.7 size=    1280KiB time=00:00:01.41 bitrate=7402.0kbits/s speed=0.0171x elapsed=0:01:22.83    \nframe=   37 fps=0.4 q=22.6 size=    1280KiB time=00:00:01.45 bitrate=7190.5kbits/s speed=0.0175x elapsed=0:01:23.34    \nframe=   37 fps=0.4 q=22.6 size=    1280KiB time=00:00:01.45 bitrate=7190.5kbits/s speed=0.0174x elapsed=0:01:23.86    \nframe=   37 fps=0.4 q=22.6 size=    1280KiB time=00:00:01.45 bitrate=7190.5kbits/s speed=0.0173x elapsed=0:01:24.40    \nframe=   37 fps=0.4 q=22.6 size=    1280KiB time=00:00:01.45 bitrate=7190.5kbits/s speed=0.0172x elapsed=0:01:24.93    \nframe=   37 fps=0.4 q=22.6 size=    1280KiB time=00:00:01.45 bitrate=7190.5kbits/s speed=0.0171x elapsed=0:01:25.44    \nframe=   37 fps=0.4 q=22.6 size=    1280KiB time=00:00:01.45 bitrate=7190.5kbits/s speed=0.017x elapsed=0:01:25.96    \nframe=   38 fps=0.4 q=24.6 size=    1280KiB time=00:00:01.50 bitrate=6990.7kbits/s speed=0.0173x elapsed=0:01:26.51    \nframe=   38 fps=0.4 q=24.6 size=    1280KiB time=00:00:01.50 bitrate=6990.7kbits/s speed=0.0172x elapsed=0:01:27.03    \nframe=   38 fps=0.4 q=24.6 size=    1280KiB time=00:00:01.50 bitrate=6990.7kbits/s speed=0.0171x elapsed=0:01:27.57    \nframe=   38 fps=0.4 q=24.6 size=    1280KiB time=00:00:01.50 bitrate=6990.7kbits/s speed=0.017x elapsed=0:01:28.08    \nframe=   38 fps=0.4 q=24.6 size=    1280KiB time=00:00:01.50 bitrate=6990.7kbits/s speed=0.0169x elapsed=0:01:28.63    \nframe=   38 fps=0.4 q=24.6 size=    1280KiB time=00:00:01.50 bitrate=6990.7kbits/s speed=0.0168x elapsed=0:01:29.16    \nframe=   38 fps=0.4 q=24.6 size=    1280KiB time=00:00:01.50 bitrate=6990.7kbits/s speed=0.0167x elapsed=0:01:29.67    \nframe=   38 fps=0.4 q=24.6 size=    1280KiB time=00:00:01.50 bitrate=6990.7kbits/s speed=0.0166x elapsed=0:01:30.18    \nframe=   38 fps=0.4 q=24.6 size=    1280KiB time=00:00:01.50 bitrate=6990.7kbits/s speed=0.0165x elapsed=0:01:30.70    \nframe=   38 fps=0.4 q=24.6 size=    1280KiB time=00:00:01.50 bitrate=6990.7kbits/s speed=0.0164x elapsed=0:01:31.22    \nframe=   38 fps=0.4 q=24.6 size=    1280KiB time=00:00:01.50 bitrate=6990.7kbits/s speed=0.0163x elapsed=0:01:31.74    \nframe=   39 fps=0.4 q=27.7 size=    1280KiB time=00:00:01.54 bitrate=6801.8kbits/s speed=0.0167x elapsed=0:01:32.29    \nframe=   39 fps=0.4 q=27.7 size=    1280KiB time=00:00:01.54 bitrate=6801.8kbits/s speed=0.0166x elapsed=0:01:32.82    \nframe=   39 fps=0.4 q=27.7 size=    1280KiB time=00:00:01.54 bitrate=6801.8kbits/s speed=0.0165x elapsed=0:01:33.33    \nframe=   39 fps=0.4 q=27.7 size=    1280KiB time=00:00:01.54 bitrate=6801.8kbits/s speed=0.0164x elapsed=0:01:33.85    \nframe=   39 fps=0.4 q=27.7 size=    1280KiB time=00:00:01.54 bitrate=6801.8kbits/s speed=0.0163x elapsed=0:01:34.36    \nframe=   40 fps=0.4 q=27.6 size=    1280KiB time=00:00:01.58 bitrate=6622.8kbits/s speed=0.0167x elapsed=0:01:34.88    \nframe=   40 fps=0.4 q=27.6 size=    1280KiB time=00:00:01.58 bitrate=6622.8kbits/s speed=0.0166x elapsed=0:01:35.40    \nframe=   40 fps=0.4 q=27.6 size=    1280KiB time=00:00:01.58 bitrate=6622.8kbits/s speed=0.0165x elapsed=0:01:35.91    \nframe=   41 fps=0.4 q=22.8 size=    1280KiB time=00:00:01.62 bitrate=6453.0kbits/s speed=0.0169x elapsed=0:01:36.43    \nframe=   41 fps=0.4 q=22.8 size=    1280KiB time=00:00:01.62 bitrate=6453.0kbits/s speed=0.0168x elapsed=0:01:36.95    \nframe=   42 fps=0.4 q=24.2 size=    1536KiB time=00:00:01.66 bitrate=7550.0kbits/s speed=0.0171x elapsed=0:01:37.45    \nframe=   42 fps=0.4 q=24.2 size=    1536KiB time=00:00:01.66 bitrate=7550.0kbits/s speed=0.017x elapsed=0:01:37.97    \nframe=   42 fps=0.4 q=24.2 size=    1536KiB time=00:00:01.66 bitrate=7550.0kbits/s speed=0.0169x elapsed=0:01:38.49    \nframe=   42 fps=0.4 q=24.2 size=    1536KiB time=00:00:01.66 bitrate=7550.0kbits/s speed=0.0168x elapsed=0:01:39.00    \nframe=   43 fps=0.4 q=27.2 size=    1536KiB time=00:00:01.70 bitrate=7365.8kbits/s speed=0.0172x elapsed=0:01:39.52    \nframe=   43 fps=0.4 q=27.2 size=    1536KiB time=00:00:01.70 bitrate=7365.8kbits/s speed=0.0171x elapsed=0:01:40.04    \nframe=   43 fps=0.4 q=27.2 size=    1536KiB time=00:00:01.70 bitrate=7365.8kbits/s speed=0.017x elapsed=0:01:40.55    \nframe=   44 fps=0.4 q=27.6 size=    1536KiB time=00:00:01.75 bitrate=7190.4kbits/s speed=0.0173x elapsed=0:01:41.06    \nframe=   44 fps=0.4 q=27.6 size=    1536KiB time=00:00:01.75 bitrate=7190.4kbits/s speed=0.0172x elapsed=0:01:41.58    \nframe=   45 fps=0.4 q=22.7 size=    1536KiB time=00:00:01.79 bitrate=7023.2kbits/s speed=0.0175x elapsed=0:01:42.10    \nframe=   45 fps=0.4 q=22.7 size=    1536KiB time=00:00:01.79 bitrate=7023.2kbits/s speed=0.0175x elapsed=0:01:42.61    \nframe=   45 fps=0.4 q=22.7 size=    1536KiB time=00:00:01.79 bitrate=7023.2kbits/s speed=0.0174x elapsed=0:01:43.13    \nframe=   45 fps=0.4 q=22.7 size=    1536KiB time=00:00:01.79 bitrate=7023.2kbits/s speed=0.0173x elapsed=0:01:43.65    \nframe=   46 fps=0.4 q=24.6 size=    1536KiB time=00:00:01.83 bitrate=6863.6kbits/s speed=0.0176x elapsed=0:01:44.18    \nframe=   46 fps=0.4 q=24.6 size=    1536KiB time=00:00:01.83 bitrate=6863.6kbits/s speed=0.0175x elapsed=0:01:44.70    \nframe=   46 fps=0.4 q=24.6 size=    1536KiB time=00:00:01.83 bitrate=6863.6kbits/s speed=0.0174x elapsed=0:01:45.23    \nframe=   46 fps=0.4 q=24.6 size=    1536KiB time=00:00:01.83 bitrate=6863.6kbits/s speed=0.0173x elapsed=0:01:45.75    \nframe=   46 fps=0.4 q=24.6 size=    1536KiB time=00:00:01.83 bitrate=6863.6kbits/s speed=0.0173x elapsed=0:01:46.26    \nframe=   46 fps=0.4 q=24.6 size=    1536KiB time=00:00:01.83 bitrate=6863.6kbits/s speed=0.0172x elapsed=0:01:46.80    \nframe=   46 fps=0.4 q=24.6 size=    1536KiB time=00:00:01.83 bitrate=6863.6kbits/s speed=0.0171x elapsed=0:01:47.33    \nframe=   46 fps=0.4 q=24.6 size=    1536KiB time=00:00:01.83 bitrate=6863.6kbits/s speed=0.017x elapsed=0:01:47.85    \nframe=   46 fps=0.4 q=24.6 size=    1536KiB time=00:00:01.83 bitrate=6863.6kbits/s speed=0.0169x elapsed=0:01:48.36    \nframe=   47 fps=0.4 q=27.6 size=    1792KiB time=00:00:01.87 bitrate=7829.6kbits/s speed=0.0172x elapsed=0:01:48.89    \nframe=   47 fps=0.4 q=27.6 size=    1792KiB time=00:00:01.87 bitrate=7829.6kbits/s speed=0.0171x elapsed=0:01:49.41    \nframe=   47 fps=0.4 q=27.6 size=    1792KiB time=00:00:01.87 bitrate=7829.6kbits/s speed=0.0171x elapsed=0:01:49.93    \nframe=   47 fps=0.4 q=27.6 size=    1792KiB time=00:00:01.87 bitrate=7829.6kbits/s speed=0.017x elapsed=0:01:50.45    \nframe=   48 fps=0.4 q=27.5 size=    1792KiB time=00:00:01.91 bitrate=7659.3kbits/s speed=0.0173x elapsed=0:01:50.97    \nframe=   48 fps=0.4 q=27.5 size=    1792KiB time=00:00:01.91 bitrate=7659.3kbits/s speed=0.0172x elapsed=0:01:51.49    \nframe=   48 fps=0.4 q=27.5 size=    1792KiB time=00:00:01.91 bitrate=7659.3kbits/s speed=0.0171x elapsed=0:01:52.05    \nframe=   48 fps=0.4 q=27.5 size=    1792KiB time=00:00:01.91 bitrate=7659.3kbits/s speed=0.017x elapsed=0:01:52.56    \nframe=   48 fps=0.4 q=27.5 size=    1792KiB time=00:00:01.91 bitrate=7659.3kbits/s speed=0.0169x elapsed=0:01:53.09    \nframe=   49 fps=0.4 q=22.7 size=    1792KiB time=00:00:01.95 bitrate=7496.4kbits/s speed=0.0172x elapsed=0:01:53.62    \nframe=   49 fps=0.4 q=22.7 size=    1792KiB time=00:00:01.95 bitrate=7496.4kbits/s speed=0.0172x elapsed=0:01:54.15    \nframe=   50 fps=0.4 q=24.9 size=    1792KiB time=00:00:02.00 bitrate=7340.2kbits/s speed=0.0174x elapsed=0:01:54.67    \nframe=   50 fps=0.4 q=24.9 size=    1792KiB time=00:00:02.00 bitrate=7340.2kbits/s speed=0.0174x elapsed=0:01:55.21    \nframe=   50 fps=0.4 q=24.9 size=    1792KiB time=00:00:02.00 bitrate=7340.2kbits/s speed=0.0173x elapsed=0:01:55.72    \nframe=   50 fps=0.4 q=24.9 size=    1792KiB time=00:00:02.00 bitrate=7340.2kbits/s speed=0.0172x elapsed=0:01:56.26    \nframe=   51 fps=0.4 q=27.7 size=    1792KiB time=00:00:02.04 bitrate=7190.4kbits/s speed=0.0175x elapsed=0:01:56.80    \nframe=   51 fps=0.4 q=27.7 size=    1792KiB time=00:00:02.04 bitrate=7190.4kbits/s speed=0.0174x elapsed=0:01:57.31    \nframe=   51 fps=0.4 q=27.7 size=    1792KiB time=00:00:02.04 bitrate=7190.4kbits/s speed=0.0173x elapsed=0:01:57.83    \nframe=   51 fps=0.4 q=27.7 size=    1792KiB time=00:00:02.04 bitrate=7190.4kbits/s speed=0.0172x elapsed=0:01:58.36    \nframe=   51 fps=0.4 q=27.7 size=    1792KiB time=00:00:02.04 bitrate=7190.4kbits/s speed=0.0172x elapsed=0:01:58.89    \nframe=   51 fps=0.4 q=27.7 size=    1792KiB time=00:00:02.04 bitrate=7190.4kbits/s speed=0.0171x elapsed=0:01:59.41    \nframe=   51 fps=0.4 q=27.7 size=    1792KiB time=00:00:02.04 bitrate=7190.4kbits/s speed=0.017x elapsed=0:01:59.92    \nframe=   51 fps=0.4 q=27.7 size=    1792KiB time=00:00:02.04 bitrate=7190.4kbits/s speed=0.0169x elapsed=0:02:00.45    \nframe=   51 fps=0.4 q=27.7 size=    1792KiB time=00:00:02.04 bitrate=7190.4kbits/s speed=0.0169x elapsed=0:02:00.98    \nframe=   51 fps=0.4 q=27.7 size=    1792KiB time=00:00:02.04 bitrate=7190.4kbits/s speed=0.0168x elapsed=0:02:01.50    \nframe=   51 fps=0.4 q=27.7 size=    1792KiB time=00:00:02.04 bitrate=7190.4kbits/s speed=0.0167x elapsed=0:02:02.01    \nframe=   52 fps=0.4 q=27.5 size=    1792KiB time=00:00:02.08 bitrate=7046.6kbits/s speed=0.017x elapsed=0:02:02.56    \nframe=   52 fps=0.4 q=27.5 size=    1792KiB time=00:00:02.08 bitrate=7046.6kbits/s speed=0.0169x elapsed=0:02:03.10    \nframe=   52 fps=0.4 q=27.5 size=    1792KiB time=00:00:02.08 bitrate=7046.6kbits/s speed=0.0169x elapsed=0:02:03.61    \nframe=   52 fps=0.4 q=27.5 size=    1792KiB time=00:00:02.08 bitrate=7046.6kbits/s speed=0.0168x elapsed=0:02:04.15    \nframe=   53 fps=0.4 q=22.6 size=    1792KiB time=00:00:02.12 bitrate=6908.4kbits/s speed=0.017x elapsed=0:02:04.67    \nframe=   53 fps=0.4 q=22.6 size=    1792KiB time=00:00:02.12 bitrate=6908.4kbits/s speed=0.017x elapsed=0:02:05.19    \nframe=   54 fps=0.4 q=24.5 size=    2048KiB time=00:00:02.16 bitrate=7743.5kbits/s speed=0.0172x elapsed=0:02:05.72    \nframe=   54 fps=0.4 q=24.5 size=    2048KiB time=00:00:02.16 bitrate=7743.5kbits/s speed=0.0172x elapsed=0:02:06.24    \nframe=   54 fps=0.4 q=24.5 size=    2048KiB time=00:00:02.16 bitrate=7743.5kbits/s speed=0.0171x elapsed=0:02:06.76    \nframe=   54 fps=0.4 q=24.5 size=    2048KiB time=00:00:02.16 bitrate=7743.5kbits/s speed=0.017x elapsed=0:02:07.32    \nframe=   54 fps=0.4 q=24.5 size=    2048KiB time=00:00:02.16 bitrate=7743.5kbits/s speed=0.0169x elapsed=0:02:07.85    \nframe=   54 fps=0.4 q=24.5 size=    2048KiB time=00:00:02.16 bitrate=7743.5kbits/s speed=0.0169x elapsed=0:02:08.38    \nframe=   55 fps=0.4 q=27.5 size=    2048KiB time=00:00:02.20 bitrate=7597.4kbits/s speed=0.0171x elapsed=0:02:08.92    \nframe=   55 fps=0.4 q=27.5 size=    2048KiB time=00:00:02.20 bitrate=7597.4kbits/s speed=0.0171x elapsed=0:02:09.44    \nframe=   55 fps=0.4 q=27.5 size=    2048KiB time=00:00:02.20 bitrate=7597.4kbits/s speed=0.017x elapsed=0:02:09.98    \nframe=   55 fps=0.4 q=27.5 size=    2048KiB time=00:00:02.20 bitrate=7597.4kbits/s speed=0.0169x elapsed=0:02:10.50    \nframe=   55 fps=0.4 q=27.5 size=    2048KiB time=00:00:02.20 bitrate=7597.4kbits/s speed=0.0169x elapsed=0:02:11.03    \nframe=   55 fps=0.4 q=27.5 size=    2048KiB time=00:00:02.20 bitrate=7597.4kbits/s speed=0.0168x elapsed=0:02:11.55    \nframe=   56 fps=0.4 q=27.5 size=    2048KiB time=00:00:02.25 bitrate=7456.7kbits/s speed=0.017x elapsed=0:02:12.06    \nframe=   57 fps=0.4 q=22.6 size=    2048KiB time=00:00:02.29 bitrate=7321.1kbits/s speed=0.0173x elapsed=0:02:12.58    \nframe=   58 fps=0.4 q=24.5 size=    2048KiB time=00:00:02.33 bitrate=7190.4kbits/s speed=0.0175x elapsed=0:02:13.10    \nframe=   58 fps=0.4 q=24.5 size=    2048KiB time=00:00:02.33 bitrate=7190.4kbits/s speed=0.0175x elapsed=0:02:13.61    \nframe=   58 fps=0.4 q=24.5 size=    2048KiB time=00:00:02.33 bitrate=7190.4kbits/s speed=0.0174x elapsed=0:02:14.13    \nframe=   59 fps=0.4 q=27.4 size=    2048KiB time=00:00:02.37 bitrate=7064.2kbits/s speed=0.0176x elapsed=0:02:14.65    \nframe=   59 fps=0.4 q=27.4 size=    2048KiB time=00:00:02.37 bitrate=7064.2kbits/s speed=0.0176x elapsed=0:02:15.19    \nframe=   60 fps=0.4 q=27.3 size=    2304KiB time=00:00:02.41 bitrate=7810.2kbits/s speed=0.0178x elapsed=0:02:15.70    \nframe=   60 fps=0.4 q=27.3 size=    2304KiB time=00:00:02.41 bitrate=7810.2kbits/s speed=0.0177x elapsed=0:02:16.22    \nframe=   61 fps=0.4 q=22.4 size=    2304KiB time=00:00:02.45 bitrate=7677.9kbits/s speed=0.018x elapsed=0:02:16.73    \nframe=   62 fps=0.5 q=24.4 size=    2304KiB time=00:00:02.50 bitrate=7549.9kbits/s speed=0.0182x elapsed=0:02:17.25    \nframe=   62 fps=0.4 q=24.4 size=    2304KiB time=00:00:02.50 bitrate=7549.9kbits/s speed=0.0181x elapsed=0:02:17.78    \nframe=   62 fps=0.4 q=24.4 size=    2304KiB time=00:00:02.50 bitrate=7549.9kbits/s speed=0.0181x elapsed=0:02:18.34    \nframe=   62 fps=0.4 q=24.4 size=    2304KiB time=00:00:02.50 bitrate=7549.9kbits/s speed=0.018x elapsed=0:02:18.90    \nframe=   62 fps=0.4 q=24.4 size=    2304KiB time=00:00:02.50 bitrate=7549.9kbits/s speed=0.0179x elapsed=0:02:19.47    \nframe=   62 fps=0.4 q=24.4 size=    2304KiB time=00:00:02.50 bitrate=7549.9kbits/s speed=0.0179x elapsed=0:02:20.00    \nframe=   63 fps=0.4 q=27.4 size=    2304KiB time=00:00:02.54 bitrate=7426.1kbits/s speed=0.0181x elapsed=0:02:20.53    \nframe=   63 fps=0.4 q=27.4 size=    2304KiB time=00:00:02.54 bitrate=7426.1kbits/s speed=0.018x elapsed=0:02:21.07    \nframe=   63 fps=0.4 q=27.4 size=    2304KiB time=00:00:02.54 bitrate=7426.1kbits/s speed=0.0179x elapsed=0:02:21.61    \nframe=   63 fps=0.4 q=27.4 size=    2304KiB time=00:00:02.54 bitrate=7426.1kbits/s speed=0.0179x elapsed=0:02:22.14    \nframe=   63 fps=0.4 q=27.4 size=    2304KiB time=00:00:02.54 bitrate=7426.1kbits/s speed=0.0178x elapsed=0:02:22.66    \nframe=   64 fps=0.4 q=27.1 size=    2304KiB time=00:00:02.58 bitrate=7306.3kbits/s speed=0.018x elapsed=0:02:23.18    \nframe=   64 fps=0.4 q=27.1 size=    2304KiB time=00:00:02.58 bitrate=7306.3kbits/s speed=0.018x elapsed=0:02:23.69    \nframe=   65 fps=0.5 q=22.5 size=    2304KiB time=00:00:02.62 bitrate=7190.4kbits/s speed=0.0182x elapsed=0:02:24.21    \nframe=   65 fps=0.4 q=22.5 size=    2304KiB time=00:00:02.62 bitrate=7190.4kbits/s speed=0.0181x elapsed=0:02:24.72    \nframe=   66 fps=0.5 q=24.8 size=    2560KiB time=00:00:02.66 bitrate=7864.5kbits/s speed=0.0184x elapsed=0:02:25.23    \nframe=   66 fps=0.5 q=24.8 size=    2560KiB time=00:00:02.66 bitrate=7864.5kbits/s speed=0.0183x elapsed=0:02:25.75    \nframe=   66 fps=0.5 q=24.8 size=    2560KiB time=00:00:02.66 bitrate=7864.5kbits/s speed=0.0182x elapsed=0:02:26.28    \nframe=   67 fps=0.5 q=27.4 size=    2560KiB time=00:00:02.70 bitrate=7743.5kbits/s speed=0.0184x elapsed=0:02:26.79    \nframe=   67 fps=0.5 q=27.4 size=    2560KiB time=00:00:02.70 bitrate=7743.5kbits/s speed=0.0184x elapsed=0:02:27.30    \nframe=   68 fps=0.5 q=27.4 size=    2560KiB time=00:00:02.75 bitrate=7626.1kbits/s speed=0.0186x elapsed=0:02:27.81    \nframe=   68 fps=0.5 q=27.4 size=    2560KiB time=00:00:02.75 bitrate=7626.1kbits/s speed=0.0185x elapsed=0:02:28.33    \nframe=   69 fps=0.5 q=22.4 size=    2560KiB time=00:00:02.79 bitrate=7512.3kbits/s speed=0.0188x elapsed=0:02:28.84    \nframe=   69 fps=0.5 q=22.4 size=    2560KiB time=00:00:02.79 bitrate=7512.3kbits/s speed=0.0187x elapsed=0:02:29.36    \nframe=   70 fps=0.5 q=24.5 size=    2560KiB time=00:00:02.83 bitrate=7401.8kbits/s speed=0.0189x elapsed=0:02:29.88    \nframe=   70 fps=0.5 q=24.5 size=    2560KiB time=00:00:02.83 bitrate=7401.8kbits/s speed=0.0188x elapsed=0:02:30.39    \nframe=   70 fps=0.5 q=24.5 size=    2560KiB time=00:00:02.83 bitrate=7401.8kbits/s speed=0.0188x elapsed=0:02:30.90    \nframe=   71 fps=0.5 q=27.2 size=    2560KiB time=00:00:02.87 bitrate=7294.6kbits/s speed=0.019x elapsed=0:02:31.42    \nframe=   71 fps=0.5 q=27.2 size=    2560KiB time=00:00:02.87 bitrate=7294.6kbits/s speed=0.0189x elapsed=0:02:31.94    \nframe=   72 fps=0.5 q=27.2 size=    2560KiB time=00:00:02.91 bitrate=7190.4kbits/s speed=0.0191x elapsed=0:02:32.45    \nframe=   72 fps=0.5 q=27.2 size=    2560KiB time=00:00:02.91 bitrate=7190.4kbits/s speed=0.0191x elapsed=0:02:32.97    \nframe=   73 fps=0.5 q=22.4 size=    2816KiB time=00:00:02.95 bitrate=7798.0kbits/s speed=0.0193x elapsed=0:02:33.50    \nframe=   73 fps=0.5 q=22.4 size=    2816KiB time=00:00:02.95 bitrate=7798.0kbits/s speed=0.0192x elapsed=0:02:34.02    \nframe=   74 fps=0.5 q=24.4 size=    2816KiB time=00:00:03.00 bitrate=7689.7kbits/s speed=0.0194x elapsed=0:02:34.54    \nframe=   74 fps=0.5 q=24.4 size=    2816KiB time=00:00:03.00 bitrate=7689.7kbits/s speed=0.0193x elapsed=0:02:35.07    \nframe=   75 fps=0.5 q=26.9 size=    2816KiB time=00:00:03.04 bitrate=7584.3kbits/s speed=0.0195x elapsed=0:02:35.59    \nframe=   75 fps=0.5 q=26.9 size=    2816KiB time=00:00:03.04 bitrate=7584.3kbits/s speed=0.0195x elapsed=0:02:36.11    \nframe=   75 fps=0.5 q=26.9 size=    2816KiB time=00:00:03.04 bitrate=7584.3kbits/s speed=0.0194x elapsed=0:02:36.62    \nframe=   76 fps=0.5 q=27.2 size=    2816KiB time=00:00:03.08 bitrate=7481.8kbits/s speed=0.0196x elapsed=0:02:37.14    \nframe=   76 fps=0.5 q=27.2 size=    2816KiB time=00:00:03.08 bitrate=7481.8kbits/s speed=0.0196x elapsed=0:02:37.67    \nframe=   77 fps=0.5 q=22.0 size=    2816KiB time=00:00:03.12 bitrate=7382.1kbits/s speed=0.0198x elapsed=0:02:38.20    \nframe=   78 fps=0.5 q=24.3 size=    2816KiB time=00:00:03.16 bitrate=7285.0kbits/s speed=0.02x elapsed=0:02:38.71    \nframe=   78 fps=0.5 q=24.3 size=    2816KiB time=00:00:03.16 bitrate=7285.0kbits/s speed=0.0199x elapsed=0:02:39.22    \nframe=   79 fps=0.5 q=26.8 size=    3072KiB time=00:00:03.20 bitrate=7844.0kbits/s speed=0.0201x elapsed=0:02:39.74    \nframe=   79 fps=0.5 q=26.8 size=    3072KiB time=00:00:03.20 bitrate=7844.0kbits/s speed=0.02x elapsed=0:02:40.26    \nframe=   79 fps=0.5 q=26.8 size=    3072KiB time=00:00:03.20 bitrate=7844.0kbits/s speed=0.02x elapsed=0:02:40.78    \nframe=   80 fps=0.5 q=26.9 size=    3072KiB time=00:00:03.25 bitrate=7743.4kbits/s speed=0.0201x elapsed=0:02:41.31    \nframe=   80 fps=0.5 q=26.9 size=    3072KiB time=00:00:03.25 bitrate=7743.4kbits/s speed=0.0201x elapsed=0:02:41.82    \nframe=   81 fps=0.5 q=22.3 size=    3072KiB time=00:00:03.29 bitrate=7645.4kbits/s speed=0.0203x elapsed=0:02:42.33    \nframe=   82 fps=0.5 q=24.4 size=    3072KiB time=00:00:03.33 bitrate=7549.9kbits/s speed=0.0205x elapsed=0:02:42.84    \nframe=   82 fps=0.5 q=24.4 size=    3072KiB time=00:00:03.33 bitrate=7549.9kbits/s speed=0.0204x elapsed=0:02:43.36    \nframe=   82 fps=0.5 q=24.4 size=    3072KiB time=00:00:03.33 bitrate=7549.9kbits/s speed=0.0203x elapsed=0:02:43.90    \nframe=   83 fps=0.5 q=27.0 size=    3072KiB time=00:00:03.37 bitrate=7456.6kbits/s speed=0.0205x elapsed=0:02:44.42    \nframe=   83 fps=0.5 q=27.0 size=    3072KiB time=00:00:03.37 bitrate=7456.6kbits/s speed=0.0205x elapsed=0:02:44.94    \nframe=   83 fps=0.5 q=27.0 size=    3072KiB time=00:00:03.37 bitrate=7456.6kbits/s speed=0.0204x elapsed=0:02:45.46    \nframe=   84 fps=0.5 q=27.0 size=    3072KiB time=00:00:03.41 bitrate=7365.7kbits/s speed=0.0206x elapsed=0:02:45.97    \nframe=   85 fps=0.5 q=22.1 size=    3072KiB time=00:00:03.45 bitrate=7277.0kbits/s speed=0.0208x elapsed=0:02:46.50    \nframe=   86 fps=0.5 q=25.6 size=    3328KiB time=00:00:03.50 bitrate=7789.5kbits/s speed=0.021x elapsed=0:02:47.01    \nframe=   86 fps=0.5 q=25.6 size=    3328KiB time=00:00:03.50 bitrate=7789.5kbits/s speed=0.0209x elapsed=0:02:47.53    \nframe=   87 fps=0.5 q=27.0 size=    3328KiB time=00:00:03.54 bitrate=7697.9kbits/s speed=0.0211x elapsed=0:02:48.05    \nframe=   87 fps=0.5 q=27.0 size=    3328KiB time=00:00:03.54 bitrate=7697.9kbits/s speed=0.021x elapsed=0:02:48.56    \nframe=   87 fps=0.5 q=27.0 size=    3328KiB time=00:00:03.54 bitrate=7697.9kbits/s speed=0.0209x elapsed=0:02:49.08    \nframe=   88 fps=0.5 q=26.8 size=    3328KiB time=00:00:03.58 bitrate=7608.4kbits/s speed=0.0211x elapsed=0:02:49.59    \nframe=   88 fps=0.5 q=26.8 size=    3328KiB time=00:00:03.58 bitrate=7608.4kbits/s speed=0.0211x elapsed=0:02:50.11    \nframe=   89 fps=0.5 q=26.9 size=    3328KiB time=00:00:03.62 bitrate=7520.9kbits/s speed=0.0212x elapsed=0:02:50.63    \nframe=   89 fps=0.5 q=26.9 size=    3328KiB time=00:00:03.62 bitrate=7520.9kbits/s speed=0.0212x elapsed=0:02:51.14    \nframe=   89 fps=0.5 q=26.9 size=    3328KiB time=00:00:03.62 bitrate=7520.9kbits/s speed=0.0211x elapsed=0:02:51.67    \nframe=   90 fps=0.5 q=22.1 size=    3328KiB time=00:00:03.66 bitrate=7435.5kbits/s speed=0.0213x elapsed=0:02:52.17    \nframe=   91 fps=0.5 q=22.5 size=    3584KiB time=00:00:03.70 bitrate=7917.4kbits/s speed=0.0215x elapsed=0:02:52.69    \nframe=   91 fps=0.5 q=22.5 size=    3584KiB time=00:00:03.70 bitrate=7917.4kbits/s speed=0.0214x elapsed=0:02:53.21    \nframe=   92 fps=0.5 q=27.0 size=    3584KiB time=00:00:03.75 bitrate=7829.5kbits/s speed=0.0216x elapsed=0:02:53.72    \nframe=   92 fps=0.5 q=27.0 size=    3584KiB time=00:00:03.75 bitrate=7829.5kbits/s speed=0.0215x elapsed=0:02:54.24    \nframe=   93 fps=0.5 q=27.0 size=    3584KiB time=00:00:03.79 bitrate=7743.4kbits/s speed=0.0217x elapsed=0:02:54.76    \nframe=   93 fps=0.5 q=27.0 size=    3584KiB time=00:00:03.79 bitrate=7743.4kbits/s speed=0.0216x elapsed=0:02:55.27    \nframe=   94 fps=0.5 q=27.4 size=    3584KiB time=00:00:03.83 bitrate=7659.3kbits/s speed=0.0218x elapsed=0:02:55.79    \nframe=   94 fps=0.5 q=27.4 size=    3584KiB time=00:00:03.83 bitrate=7659.3kbits/s speed=0.0217x elapsed=0:02:56.30    \nframe=   94 fps=0.5 q=27.4 size=    3584KiB time=00:00:03.83 bitrate=7659.3kbits/s speed=0.0217x elapsed=0:02:56.81    \nframe=   95 fps=0.5 q=22.2 size=    3584KiB time=00:00:03.87 bitrate=7576.9kbits/s speed=0.0219x elapsed=0:02:57.34    \nframe=   96 fps=0.5 q=24.4 size=    3584KiB time=00:00:03.91 bitrate=7496.3kbits/s speed=0.022x elapsed=0:02:57.85    \nframe=   96 fps=0.5 q=24.4 size=    3584KiB time=00:00:03.91 bitrate=7496.3kbits/s speed=0.022x elapsed=0:02:58.36    \nframe=   97 fps=0.5 q=27.4 size=    3840KiB time=00:00:03.95 bitrate=7947.2kbits/s speed=0.0221x elapsed=0:02:58.87    \nframe=   98 fps=0.5 q=27.3 size=    3840KiB time=00:00:04.00 bitrate=7864.4kbits/s speed=0.0223x elapsed=0:02:59.39    \nframe=   98 fps=0.5 q=27.3 size=    3840KiB time=00:00:04.00 bitrate=7864.4kbits/s speed=0.0222x elapsed=0:02:59.90    \nframe=   99 fps=0.5 q=22.1 size=    3840KiB time=00:00:04.04 bitrate=7783.3kbits/s speed=0.0224x elapsed=0:03:00.43    \nframe=   99 fps=0.5 q=22.1 size=    3840KiB time=00:00:04.04 bitrate=7783.3kbits/s speed=0.0223x elapsed=0:03:00.94    \nframe=   99 fps=0.5 q=22.1 size=    3840KiB time=00:00:04.04 bitrate=7783.3kbits/s speed=0.0223x elapsed=0:03:01.46    \nframe=  100 fps=0.5 q=24.4 size=    3840KiB time=00:00:04.08 bitrate=7703.9kbits/s speed=0.0224x elapsed=0:03:02.00    \nframe=  100 fps=0.5 q=24.4 size=    3840KiB time=00:00:04.08 bitrate=7703.9kbits/s speed=0.0224x elapsed=0:03:02.52    \nframe=  100 fps=0.5 q=24.4 size=    3840KiB time=00:00:04.08 bitrate=7703.9kbits/s speed=0.0223x elapsed=0:03:03.04    \nframe=  101 fps=0.6 q=27.0 size=    3840KiB time=00:00:04.12 bitrate=7626.1kbits/s speed=0.0225x elapsed=0:03:03.58    \nframe=  101 fps=0.5 q=27.0 size=    3840KiB time=00:00:04.12 bitrate=7626.1kbits/s speed=0.0224x elapsed=0:03:04.10    \nframe=  101 fps=0.5 q=27.0 size=    3840KiB time=00:00:04.12 bitrate=7626.1kbits/s speed=0.0223x elapsed=0:03:04.61    \nframe=  101 fps=0.5 q=27.0 size=    3840KiB time=00:00:04.12 bitrate=7626.1kbits/s speed=0.0223x elapsed=0:03:05.13    \nframe=  102 fps=0.5 q=27.2 size=    3840KiB time=00:00:04.16 bitrate=7549.8kbits/s speed=0.0224x elapsed=0:03:05.65    \nframe=  102 fps=0.5 q=27.2 size=    3840KiB time=00:00:04.16 bitrate=7549.8kbits/s speed=0.0224x elapsed=0:03:06.17    \nframe=  102 fps=0.5 q=27.2 size=    3840KiB time=00:00:04.16 bitrate=7549.8kbits/s speed=0.0223x elapsed=0:03:06.71    \nframe=  102 fps=0.5 q=27.2 size=    3840KiB time=00:00:04.16 bitrate=7549.8kbits/s speed=0.0223x elapsed=0:03:07.23    \nframe=  102 fps=0.5 q=27.2 size=    3840KiB time=00:00:04.16 bitrate=7549.8kbits/s speed=0.0222x elapsed=0:03:07.77    \nframe=  103 fps=0.5 q=22.1 size=    3840KiB time=00:00:04.20 bitrate=7475.1kbits/s speed=0.0224x elapsed=0:03:08.28    \nframe=  103 fps=0.5 q=22.1 size=    3840KiB time=00:00:04.20 bitrate=7475.1kbits/s speed=0.0223x elapsed=0:03:08.80    \nframe=  104 fps=0.5 q=24.4 size=    4096KiB time=00:00:04.25 bitrate=7895.2kbits/s speed=0.0224x elapsed=0:03:09.32    \nframe=  104 fps=0.5 q=24.4 size=    4096KiB time=00:00:04.25 bitrate=7895.2kbits/s speed=0.0224x elapsed=0:03:09.85    \nframe=  104 fps=0.5 q=24.4 size=    4096KiB time=00:00:04.25 bitrate=7895.2kbits/s speed=0.0223x elapsed=0:03:10.37    \nframe=  105 fps=0.6 q=27.0 size=    4096KiB time=00:00:04.29 bitrate=7818.6kbits/s speed=0.0225x elapsed=0:03:10.89    \nframe=  105 fps=0.5 q=27.0 size=    4096KiB time=00:00:04.29 bitrate=7818.6kbits/s speed=0.0224x elapsed=0:03:11.41    \nframe=  105 fps=0.5 q=27.0 size=    4096KiB time=00:00:04.29 bitrate=7818.6kbits/s speed=0.0224x elapsed=0:03:11.94    \nframe=  106 fps=0.6 q=27.1 size=    4096KiB time=00:00:04.33 bitrate=7743.4kbits/s speed=0.0225x elapsed=0:03:12.46    \nframe=  106 fps=0.5 q=27.1 size=    4096KiB time=00:00:04.33 bitrate=7743.4kbits/s speed=0.0225x elapsed=0:03:13.00    \nframe=  106 fps=0.5 q=27.1 size=    4096KiB time=00:00:04.33 bitrate=7743.4kbits/s speed=0.0224x elapsed=0:03:13.52    \nframe=  106 fps=0.5 q=27.1 size=    4096KiB time=00:00:04.33 bitrate=7743.4kbits/s speed=0.0223x elapsed=0:03:14.06    \nframe=  107 fps=0.5 q=22.2 size=    4096KiB time=00:00:04.37 bitrate=7669.7kbits/s speed=0.0225x elapsed=0:03:14.61    \nframe=  107 fps=0.5 q=22.2 size=    4096KiB time=00:00:04.37 bitrate=7669.7kbits/s speed=0.0224x elapsed=0:03:15.14    \nframe=  108 fps=0.6 q=24.4 size=    4096KiB time=00:00:04.41 bitrate=7597.3kbits/s speed=0.0226x elapsed=0:03:15.65    \nframe=  108 fps=0.6 q=24.4 size=    4096KiB time=00:00:04.41 bitrate=7597.3kbits/s speed=0.0225x elapsed=0:03:16.18    \nframe=  108 fps=0.5 q=24.4 size=    4096KiB time=00:00:04.41 bitrate=7597.3kbits/s speed=0.0225x elapsed=0:03:16.69    \nframe=  108 fps=0.5 q=24.4 size=    4096KiB time=00:00:04.41 bitrate=7597.3kbits/s speed=0.0224x elapsed=0:03:17.21    \nframe=  108 fps=0.5 q=24.4 size=    4096KiB time=00:00:04.41 bitrate=7597.3kbits/s speed=0.0223x elapsed=0:03:17.73    \nframe=  108 fps=0.5 q=24.4 size=    4096KiB time=00:00:04.41 bitrate=7597.3kbits/s speed=0.0223x elapsed=0:03:18.24    \nframe=  108 fps=0.5 q=24.4 size=    4096KiB time=00:00:04.41 bitrate=7597.3kbits/s speed=0.0222x elapsed=0:03:18.76    \nframe=  109 fps=0.5 q=27.0 size=    4096KiB time=00:00:04.45 bitrate=7526.3kbits/s speed=0.0224x elapsed=0:03:19.31    \nframe=  109 fps=0.5 q=27.0 size=    4096KiB time=00:00:04.45 bitrate=7526.3kbits/s speed=0.0223x elapsed=0:03:19.85    \nframe=  109 fps=0.5 q=27.0 size=    4096KiB time=00:00:04.45 bitrate=7526.3kbits/s speed=0.0222x elapsed=0:03:20.39    \nframe=  109 fps=0.5 q=27.0 size=    4096KiB time=00:00:04.45 bitrate=7526.3kbits/s speed=0.0222x elapsed=0:03:20.92    \nframe=  109 fps=0.5 q=27.0 size=    4096KiB time=00:00:04.45 bitrate=7526.3kbits/s speed=0.0221x elapsed=0:03:21.47    \nframe=  109 fps=0.5 q=27.0 size=    4096KiB time=00:00:04.45 bitrate=7526.3kbits/s speed=0.0221x elapsed=0:03:22.02    \nframe=  109 fps=0.5 q=27.0 size=    4096KiB time=00:00:04.45 bitrate=7526.3kbits/s speed=0.022x elapsed=0:03:22.61    \nframe=  109 fps=0.5 q=27.0 size=    4096KiB time=00:00:04.45 bitrate=7526.3kbits/s speed=0.0219x elapsed=0:03:23.13    \nframe=  109 fps=0.5 q=27.0 size=    4096KiB time=00:00:04.45 bitrate=7526.3kbits/s speed=0.0219x elapsed=0:03:23.66    \nframe=  110 fps=0.5 q=27.4 size=    4352KiB time=00:00:04.50 bitrate=7922.7kbits/s speed=0.022x elapsed=0:03:24.22    \nframe=  110 fps=0.5 q=27.4 size=    4352KiB time=00:00:04.50 bitrate=7922.7kbits/s speed=0.022x elapsed=0:03:24.79    \nframe=  110 fps=0.5 q=27.4 size=    4352KiB time=00:00:04.50 bitrate=7922.7kbits/s speed=0.0219x elapsed=0:03:25.34    \nframe=  110 fps=0.5 q=27.4 size=    4352KiB time=00:00:04.50 bitrate=7922.7kbits/s speed=0.0219x elapsed=0:03:25.89    \nframe=  110 fps=0.5 q=27.4 size=    4352KiB time=00:00:04.50 bitrate=7922.7kbits/s speed=0.0218x elapsed=0:03:26.45    \nframe=  110 fps=0.5 q=27.4 size=    4352KiB time=00:00:04.50 bitrate=7922.7kbits/s speed=0.0217x elapsed=0:03:26.99    \nframe=  110 fps=0.5 q=27.4 size=    4352KiB time=00:00:04.50 bitrate=7922.7kbits/s speed=0.0217x elapsed=0:03:27.53    \nframe=  110 fps=0.5 q=27.4 size=    4352KiB time=00:00:04.50 bitrate=7922.7kbits/s speed=0.0216x elapsed=0:03:28.05    \nframe=  110 fps=0.5 q=27.4 size=    4352KiB time=00:00:04.50 bitrate=7922.7kbits/s speed=0.0216x elapsed=0:03:28.61    \nframe=  111 fps=0.5 q=22.2 size=    4352KiB time=00:00:04.54 bitrate=7850.0kbits/s speed=0.0217x elapsed=0:03:29.13    \nframe=  111 fps=0.5 q=22.2 size=    4352KiB time=00:00:04.54 bitrate=7850.0kbits/s speed=0.0217x elapsed=0:03:29.64    \nframe=  112 fps=0.5 q=24.5 size=    4352KiB time=00:00:04.58 bitrate=7778.6kbits/s speed=0.0218x elapsed=0:03:30.16    \nframe=  112 fps=0.5 q=24.5 size=    4352KiB time=00:00:04.58 bitrate=7778.6kbits/s speed=0.0218x elapsed=0:03:30.70    \nframe=  112 fps=0.5 q=24.5 size=    4352KiB time=00:00:04.58 bitrate=7778.6kbits/s speed=0.0217x elapsed=0:03:31.22    \nframe=  113 fps=0.5 q=27.3 size=    4352KiB time=00:00:04.62 bitrate=7708.5kbits/s speed=0.0218x elapsed=0:03:31.75    \nframe=  113 fps=0.5 q=27.3 size=    4352KiB time=00:00:04.62 bitrate=7708.5kbits/s speed=0.0218x elapsed=0:03:32.29    \nframe=  113 fps=0.5 q=27.3 size=    4352KiB time=00:00:04.62 bitrate=7708.5kbits/s speed=0.0217x elapsed=0:03:32.82    \nframe=  113 fps=0.5 q=27.3 size=    4352KiB time=00:00:04.62 bitrate=7708.5kbits/s speed=0.0217x elapsed=0:03:33.34    \nframe=  113 fps=0.5 q=27.3 size=    4352KiB time=00:00:04.62 bitrate=7708.5kbits/s speed=0.0216x elapsed=0:03:33.86    \nframe=  114 fps=0.5 q=27.1 size=    4352KiB time=00:00:04.66 bitrate=7639.7kbits/s speed=0.0218x elapsed=0:03:34.38    \nframe=  114 fps=0.5 q=27.1 size=    4352KiB time=00:00:04.66 bitrate=7639.7kbits/s speed=0.0217x elapsed=0:03:34.90    \nframe=  114 fps=0.5 q=27.1 size=    4352KiB time=00:00:04.66 bitrate=7639.7kbits/s speed=0.0217x elapsed=0:03:35.43    \nframe=  114 fps=0.5 q=27.1 size=    4352KiB time=00:00:04.66 bitrate=7639.7kbits/s speed=0.0216x elapsed=0:03:35.94    \nframe=  114 fps=0.5 q=27.1 size=    4352KiB time=00:00:04.66 bitrate=7639.7kbits/s speed=0.0216x elapsed=0:03:36.46    \nframe=  115 fps=0.5 q=22.1 size=    4352KiB time=00:00:04.70 bitrate=7572.1kbits/s speed=0.0217x elapsed=0:03:36.98    \nframe=  115 fps=0.5 q=22.1 size=    4352KiB time=00:00:04.70 bitrate=7572.1kbits/s speed=0.0216x elapsed=0:03:37.51    \nframe=  115 fps=0.5 q=22.1 size=    4352KiB time=00:00:04.70 bitrate=7572.1kbits/s speed=0.0216x elapsed=0:03:38.02    \nframe=  116 fps=0.5 q=24.3 size=    4608KiB time=00:00:04.75 bitrate=7947.2kbits/s speed=0.0217x elapsed=0:03:38.56    \nframe=  116 fps=0.5 q=24.3 size=    4608KiB time=00:00:04.75 bitrate=7947.2kbits/s speed=0.0217x elapsed=0:03:39.13    \nframe=  116 fps=0.5 q=24.3 size=    4608KiB time=00:00:04.75 bitrate=7947.2kbits/s speed=0.0216x elapsed=0:03:39.65    \nframe=  116 fps=0.5 q=24.3 size=    4608KiB time=00:00:04.75 bitrate=7947.2kbits/s speed=0.0216x elapsed=0:03:40.19    \nframe=  117 fps=0.5 q=27.2 size=    4608KiB time=00:00:04.79 bitrate=7878.1kbits/s speed=0.0217x elapsed=0:03:40.70    \nframe=  117 fps=0.5 q=27.2 size=    4608KiB time=00:00:04.79 bitrate=7878.1kbits/s speed=0.0217x elapsed=0:03:41.24    \nframe=  117 fps=0.5 q=27.2 size=    4608KiB time=00:00:04.79 bitrate=7878.1kbits/s speed=0.0216x elapsed=0:03:41.79    \nframe=  118 fps=0.5 q=27.2 size=    4608KiB time=00:00:04.83 bitrate=7810.2kbits/s speed=0.0217x elapsed=0:03:42.34    \nframe=  118 fps=0.5 q=27.2 size=    4608KiB time=00:00:04.83 bitrate=7810.2kbits/s speed=0.0217x elapsed=0:03:42.87    \nframe=  118 fps=0.5 q=27.2 size=    4608KiB time=00:00:04.83 bitrate=7810.2kbits/s speed=0.0216x elapsed=0:03:43.38    \nframe=  118 fps=0.5 q=27.2 size=    4608KiB time=00:00:04.83 bitrate=7810.2kbits/s speed=0.0216x elapsed=0:03:43.89    \nframe=  118 fps=0.5 q=27.2 size=    4608KiB time=00:00:04.83 bitrate=7810.2kbits/s speed=0.0215x elapsed=0:03:44.44    \nframe=  119 fps=0.5 q=22.1 size=    4608KiB time=00:00:04.87 bitrate=7743.4kbits/s speed=0.0217x elapsed=0:03:44.96    \nframe=  119 fps=0.5 q=22.1 size=    4608KiB time=00:00:04.87 bitrate=7743.4kbits/s speed=0.0216x elapsed=0:03:45.47    \nframe=  119 fps=0.5 q=22.1 size=    4608KiB time=00:00:04.87 bitrate=7743.4kbits/s speed=0.0216x elapsed=0:03:46.01    \nframe=  119 fps=0.5 q=22.1 size=    4608KiB time=00:00:04.87 bitrate=7743.4kbits/s speed=0.0215x elapsed=0:03:46.55    \nframe=  120 fps=0.5 q=24.5 size=    4608KiB time=00:00:04.91 bitrate=7677.8kbits/s speed=0.0217x elapsed=0:03:47.07    \nframe=  120 fps=0.5 q=24.5 size=    4608KiB time=00:00:04.91 bitrate=7677.8kbits/s speed=0.0216x elapsed=0:03:47.63    \nframe=  120 fps=0.5 q=24.5 size=    4608KiB time=00:00:04.91 bitrate=7677.8kbits/s speed=0.0215x elapsed=0:03:48.16    \nframe=  120 fps=0.5 q=24.5 size=    4608KiB time=00:00:04.91 bitrate=7677.8kbits/s speed=0.0215x elapsed=0:03:48.69    \nframe=  121 fps=0.5 q=27.2 size=    4608KiB time=00:00:04.95 bitrate=7613.3kbits/s speed=0.0216x elapsed=0:03:49.22    \nframe=  121 fps=0.5 q=27.2 size=    4608KiB time=00:00:04.95 bitrate=7613.3kbits/s speed=0.0216x elapsed=0:03:49.72    \nframe=  121 fps=0.5 q=27.2 size=    4608KiB time=00:00:04.95 bitrate=7613.3kbits/s speed=0.0215x elapsed=0:03:50.25    \nframe=  121 fps=0.5 q=27.2 size=    4608KiB time=00:00:04.95 bitrate=7613.3kbits/s speed=0.0215x elapsed=0:03:50.78    \nframe=  121 fps=0.5 q=27.2 size=    4608KiB time=00:00:04.95 bitrate=7613.3kbits/s speed=0.0214x elapsed=0:03:51.28    \nframe=  122 fps=0.5 q=27.4 size=    4608KiB time=00:00:05.00 bitrate=7549.8kbits/s speed=0.0216x elapsed=0:03:51.81    \nframe=  122 fps=0.5 q=27.4 size=    4608KiB time=00:00:05.00 bitrate=7549.8kbits/s speed=0.0215x elapsed=0:03:52.33    \nframe=  123 fps=0.5 q=21.9 size=    4608KiB time=00:00:05.04 bitrate=7487.4kbits/s speed=0.0217x elapsed=0:03:52.84    \nframe=  123 fps=0.5 q=21.9 size=    4608KiB time=00:00:05.04 bitrate=7487.4kbits/s speed=0.0216x elapsed=0:03:53.37    \nframe=  123 fps=0.5 q=21.9 size=    4608KiB time=00:00:05.04 bitrate=7487.4kbits/s speed=0.0216x elapsed=0:03:53.90    \nframe=  124 fps=0.5 q=24.6 size=    4864KiB time=00:00:05.08 bitrate=7838.6kbits/s speed=0.0217x elapsed=0:03:54.44    \nframe=  124 fps=0.5 q=24.6 size=    4864KiB time=00:00:05.08 bitrate=7838.6kbits/s speed=0.0216x elapsed=0:03:54.95    \nframe=  124 fps=0.5 q=24.6 size=    4864KiB time=00:00:05.08 bitrate=7838.6kbits/s speed=0.0216x elapsed=0:03:55.48    \nframe=  125 fps=0.5 q=27.1 size=    4864KiB time=00:00:05.08 bitrate=7838.6kbits/s speed=0.0215x elapsed=0:03:56.01    \nframe=  125 fps=0.5 q=27.1 size=    4864KiB time=00:00:05.12 bitrate=7774.9kbits/s speed=0.0217x elapsed=0:03:56.55    \nframe=  125 fps=0.5 q=27.1 size=    4864KiB time=00:00:05.12 bitrate=7774.9kbits/s speed=0.0216x elapsed=0:03:57.07    \nframe=  126 fps=0.5 q=27.1 size=    4864KiB time=00:00:05.16 bitrate=7712.2kbits/s speed=0.0217x elapsed=0:03:57.61    \nframe=  126 fps=0.5 q=27.1 size=    4864KiB time=00:00:05.16 bitrate=7712.2kbits/s speed=0.0217x elapsed=0:03:58.15    \nframe=  126 fps=0.5 q=27.1 size=    4864KiB time=00:00:05.16 bitrate=7712.2kbits/s speed=0.0216x elapsed=0:03:58.66    \nframe=  126 fps=0.5 q=27.1 size=    4864KiB time=00:00:05.16 bitrate=7712.2kbits/s speed=0.0216x elapsed=0:03:59.18    \nframe=  126 fps=0.5 q=27.1 size=    4864KiB time=00:00:05.16 bitrate=7712.2kbits/s speed=0.0216x elapsed=0:03:59.69    \nframe=  127 fps=0.5 q=22.0 size=    4864KiB time=00:00:05.20 bitrate=7650.5kbits/s speed=0.0217x elapsed=0:04:00.22    \nframe=  127 fps=0.5 q=22.0 size=    4864KiB time=00:00:05.20 bitrate=7650.5kbits/s speed=0.0216x elapsed=0:04:00.76    \nframe=  128 fps=0.5 q=24.3 size=    4864KiB time=00:00:05.25 bitrate=7589.8kbits/s speed=0.0218x elapsed=0:04:01.28    \nframe=  128 fps=0.5 q=24.3 size=    4864KiB time=00:00:05.25 bitrate=7589.8kbits/s speed=0.0217x elapsed=0:04:01.79    \nframe=  128 fps=0.5 q=24.3 size=    4864KiB time=00:00:05.25 bitrate=7589.8kbits/s speed=0.0217x elapsed=0:04:02.32    \nframe=  128 fps=0.5 q=24.3 size=    4864KiB time=00:00:05.25 bitrate=7589.8kbits/s speed=0.0216x elapsed=0:04:02.85    \nframe=  128 fps=0.5 q=24.3 size=    4864KiB time=00:00:05.25 bitrate=7589.8kbits/s speed=0.0216x elapsed=0:04:03.38    \nframe=  128 fps=0.5 q=24.3 size=    4864KiB time=00:00:05.25 bitrate=7589.8kbits/s speed=0.0215x elapsed=0:04:03.92    \nframe=  128 fps=0.5 q=24.3 size=    4864KiB time=00:00:05.25 bitrate=7589.8kbits/s speed=0.0215x elapsed=0:04:04.45    \nframe=  129 fps=0.5 q=26.8 size=    5120KiB time=00:00:05.25 bitrate=7989.2kbits/s speed=0.0214x elapsed=0:04:04.97    \nframe=  129 fps=0.5 q=26.8 size=    5120KiB time=00:00:05.29 bitrate=7926.3kbits/s speed=0.0216x elapsed=0:04:05.49    \nframe=  129 fps=0.5 q=26.8 size=    5120KiB time=00:00:05.29 bitrate=7926.3kbits/s speed=0.0215x elapsed=0:04:06.01    \nframe=  129 fps=0.5 q=26.8 size=    5120KiB time=00:00:05.29 bitrate=7926.3kbits/s speed=0.0215x elapsed=0:04:06.54    \nframe=  129 fps=0.5 q=26.8 size=    5120KiB time=00:00:05.29 bitrate=7926.3kbits/s speed=0.0214x elapsed=0:04:07.09    \nframe=  130 fps=0.5 q=26.9 size=    5120KiB time=00:00:05.33 bitrate=7864.4kbits/s speed=0.0215x elapsed=0:04:07.61    \nframe=  130 fps=0.5 q=26.9 size=    5120KiB time=00:00:05.33 bitrate=7864.4kbits/s speed=0.0215x elapsed=0:04:08.13    \nframe=  130 fps=0.5 q=26.9 size=    5120KiB time=00:00:05.33 bitrate=7864.4kbits/s speed=0.0214x elapsed=0:04:08.65    \nframe=  131 fps=0.5 q=22.2 size=    5120KiB time=00:00:05.37 bitrate=7803.4kbits/s speed=0.0216x elapsed=0:04:09.18    \nframe=  131 fps=0.5 q=22.2 size=    5120KiB time=00:00:05.37 bitrate=7803.4kbits/s speed=0.0215x elapsed=0:04:09.73    \nframe=  132 fps=0.5 q=24.2 size=    5120KiB time=00:00:05.41 bitrate=7743.4kbits/s speed=0.0216x elapsed=0:04:10.26    \nframe=  132 fps=0.5 q=24.2 size=    5120KiB time=00:00:05.41 bitrate=7743.4kbits/s speed=0.0216x elapsed=0:04:10.79    \nframe=  132 fps=0.5 q=24.2 size=    5120KiB time=00:00:05.41 bitrate=7743.4kbits/s speed=0.0216x elapsed=0:04:11.33    \nframe=  132 fps=0.5 q=24.2 size=    5120KiB time=00:00:05.41 bitrate=7743.4kbits/s speed=0.0215x elapsed=0:04:11.87    \nframe=  132 fps=0.5 q=24.2 size=    5120KiB time=00:00:05.41 bitrate=7743.4kbits/s speed=0.0215x elapsed=0:04:12.41    \nframe=  133 fps=0.5 q=26.9 size=    5120KiB time=00:00:05.45 bitrate=7684.3kbits/s speed=0.0216x elapsed=0:04:12.95    \nframe=  133 fps=0.5 q=26.9 size=    5120KiB time=00:00:05.45 bitrate=7684.3kbits/s speed=0.0215x elapsed=0:04:13.46    \nframe=  133 fps=0.5 q=26.9 size=    5120KiB time=00:00:05.45 bitrate=7684.3kbits/s speed=0.0215x elapsed=0:04:13.97    \nframe=  133 fps=0.5 q=26.9 size=    5120KiB time=00:00:05.45 bitrate=7684.3kbits/s speed=0.0214x elapsed=0:04:14.49    \nframe=  133 fps=0.5 q=26.9 size=    5120KiB time=00:00:05.45 bitrate=7684.3kbits/s speed=0.0214x elapsed=0:04:15.00    \nframe=  133 fps=0.5 q=26.9 size=    5120KiB time=00:00:05.45 bitrate=7684.3kbits/s speed=0.0214x elapsed=0:04:15.53    \nframe=  134 fps=0.5 q=27.1 size=    5120KiB time=00:00:05.50 bitrate=7626.1kbits/s speed=0.0215x elapsed=0:04:16.06    \nframe=  134 fps=0.5 q=27.1 size=    5120KiB time=00:00:05.50 bitrate=7626.1kbits/s speed=0.0214x elapsed=0:04:16.58    \nframe=  135 fps=0.5 q=22.9 size=    5120KiB time=00:00:05.54 bitrate=7568.7kbits/s speed=0.0216x elapsed=0:04:17.11    \nframe=  135 fps=0.5 q=22.9 size=    5120KiB time=00:00:05.54 bitrate=7568.7kbits/s speed=0.0215x elapsed=0:04:17.65    \nframe=  135 fps=0.5 q=22.9 size=    5120KiB time=00:00:05.54 bitrate=7568.7kbits/s speed=0.0215x elapsed=0:04:18.16    \nframe=  136 fps=0.5 q=24.1 size=    5376KiB time=00:00:05.58 bitrate=7887.9kbits/s speed=0.0216x elapsed=0:04:18.69    \nframe=  136 fps=0.5 q=24.1 size=    5376KiB time=00:00:05.58 bitrate=7887.9kbits/s speed=0.0215x elapsed=0:04:19.20    \nframe=  137 fps=0.5 q=26.9 size=    5376KiB time=00:00:05.62 bitrate=7829.4kbits/s speed=0.0217x elapsed=0:04:19.72    \nframe=  137 fps=0.5 q=26.9 size=    5376KiB time=00:00:05.62 bitrate=7829.4kbits/s speed=0.0216x elapsed=0:04:20.24    \nframe=  138 fps=0.5 q=26.7 size=    5376KiB time=00:00:05.66 bitrate=7771.9kbits/s speed=0.0217x elapsed=0:04:20.76    \nframe=  139 fps=0.5 q=24.5 size=    5376KiB time=00:00:05.70 bitrate=7715.1kbits/s speed=0.0218x elapsed=0:04:21.27    \nframe=  139 fps=0.5 q=24.5 size=    5376KiB time=00:00:05.70 bitrate=7715.1kbits/s speed=0.0218x elapsed=0:04:21.78    \nframe=  139 fps=0.5 q=24.5 size=    5376KiB time=00:00:05.70 bitrate=7715.1kbits/s speed=0.0218x elapsed=0:04:22.30    \nframe=  140 fps=0.5 q=26.7 size=    5376KiB time=00:00:05.75 bitrate=7659.2kbits/s speed=0.0219x elapsed=0:04:22.83    \nframe=  140 fps=0.5 q=26.7 size=    5376KiB time=00:00:05.75 bitrate=7659.2kbits/s speed=0.0218x elapsed=0:04:23.35    \nframe=  141 fps=0.5 q=18.5 size=    5376KiB time=00:00:05.79 bitrate=7604.1kbits/s speed=0.0219x elapsed=0:04:23.87    \nframe=  141 fps=0.5 q=18.5 size=    5376KiB time=00:00:05.79 bitrate=7604.1kbits/s speed=0.0219x elapsed=0:04:24.38    \nframe=  142 fps=0.5 q=20.6 size=    5632KiB time=00:00:05.83 bitrate=7909.3kbits/s speed=0.022x elapsed=0:04:24.90    \nframe=  143 fps=0.5 q=24.9 size=    5888KiB time=00:00:05.87 bitrate=8210.2kbits/s speed=0.0221x elapsed=0:04:25.41    \nframe=  143 fps=0.5 q=24.9 size=    5888KiB time=00:00:05.87 bitrate=8210.2kbits/s speed=0.0221x elapsed=0:04:25.92    \nframe=  143 fps=0.5 q=24.9 size=    5888KiB time=00:00:05.87 bitrate=8210.2kbits/s speed=0.022x elapsed=0:04:26.46    \nframe=  145 fps=0.5 q=27.6 size=    5888KiB time=00:00:05.95 bitrate=8095.4kbits/s speed=0.0223x elapsed=0:04:27.00    \nframe=  145 fps=0.5 q=27.6 size=    5888KiB time=00:00:05.95 bitrate=8095.4kbits/s speed=0.0223x elapsed=0:04:27.52    \nframe=  145 fps=0.5 q=27.6 size=    5888KiB time=00:00:05.95 bitrate=8095.4kbits/s speed=0.0222x elapsed=0:04:28.04    \nframe=  146 fps=0.5 q=27.4 size=    5888KiB time=00:00:06.00 bitrate=8039.1kbits/s speed=0.0223x elapsed=0:04:28.58    \nframe=  146 fps=0.5 q=27.4 size=    5888KiB time=00:00:06.00 bitrate=8039.1kbits/s speed=0.0223x elapsed=0:04:29.09    \nframe=  146 fps=0.5 q=27.4 size=    5888KiB time=00:00:06.00 bitrate=8039.1kbits/s speed=0.0223x elapsed=0:04:29.61    \nframe=  147 fps=0.5 q=21.1 size=    5888KiB time=00:00:06.04 bitrate=7983.7kbits/s speed=0.0224x elapsed=0:04:30.13    \nframe=  147 fps=0.5 q=21.1 size=    5888KiB time=00:00:06.04 bitrate=7983.7kbits/s speed=0.0223x elapsed=0:04:30.65    \nframe=  148 fps=0.5 q=24.6 size=    6144KiB time=00:00:06.08 bitrate=8273.8kbits/s speed=0.0224x elapsed=0:04:31.18    \nframe=  149 fps=0.5 q=27.6 size=    6144KiB time=00:00:06.12 bitrate=8217.5kbits/s speed=0.0225x elapsed=0:04:31.70    \nframe=  150 fps=0.6 q=27.6 size=    6144KiB time=00:00:06.16 bitrate=8161.9kbits/s speed=0.0227x elapsed=0:04:32.22    \nframe=  150 fps=0.5 q=27.6 size=    6144KiB time=00:00:06.16 bitrate=8161.9kbits/s speed=0.0226x elapsed=0:04:32.74    \nframe=  150 fps=0.5 q=27.6 size=    6144KiB time=00:00:06.16 bitrate=8161.9kbits/s speed=0.0226x elapsed=0:04:33.25    \nframe=  151 fps=0.6 q=20.8 size=    6144KiB time=00:00:06.20 bitrate=8107.2kbits/s speed=0.0227x elapsed=0:04:33.78    \nframe=  152 fps=0.6 q=24.9 size=    6144KiB time=00:00:06.25 bitrate=8053.1kbits/s speed=0.0228x elapsed=0:04:34.31    \nframe=  152 fps=0.6 q=24.9 size=    6144KiB time=00:00:06.25 bitrate=8053.1kbits/s speed=0.0227x elapsed=0:04:34.88    \nframe=  152 fps=0.6 q=24.9 size=    6144KiB time=00:00:06.25 bitrate=8053.1kbits/s speed=0.0227x elapsed=0:04:35.40    \nframe=  154 fps=0.6 q=27.8 size=    6144KiB time=00:00:06.33 bitrate=7947.2kbits/s speed=0.023x elapsed=0:04:35.94    \nframe=  154 fps=0.6 q=27.8 size=    6144KiB time=00:00:06.33 bitrate=7947.2kbits/s speed=0.0229x elapsed=0:04:36.45    \nframe=  154 fps=0.6 q=27.8 size=    6144KiB time=00:00:06.33 bitrate=7947.2kbits/s speed=0.0229x elapsed=0:04:36.99    \nframe=  154 fps=0.6 q=27.8 size=    6144KiB time=00:00:06.33 bitrate=7947.2kbits/s speed=0.0228x elapsed=0:04:37.53    \nframe=  155 fps=0.6 q=20.7 size=    6144KiB time=00:00:06.37 bitrate=7895.2kbits/s speed=0.0229x elapsed=0:04:38.07    \nframe=  155 fps=0.6 q=20.7 size=    6144KiB time=00:00:06.37 bitrate=7895.2kbits/s speed=0.0229x elapsed=0:04:38.60    \nframe=  155 fps=0.6 q=20.7 size=    6144KiB time=00:00:06.37 bitrate=7895.2kbits/s speed=0.0228x elapsed=0:04:39.11    \nframe=  156 fps=0.6 q=24.3 size=    6400KiB time=00:00:06.41 bitrate=8170.8kbits/s speed=0.0229x elapsed=0:04:39.65    \nframe=  156 fps=0.6 q=24.3 size=    6400KiB time=00:00:06.41 bitrate=8170.8kbits/s speed=0.0229x elapsed=0:04:40.18    \nframe=  158 fps=0.6 q=27.6 size=    6400KiB time=00:00:06.50 bitrate=8066.0kbits/s speed=0.0232x elapsed=0:04:40.70    \nframe=  158 fps=0.6 q=27.6 size=    6400KiB time=00:00:06.50 bitrate=8066.0kbits/s speed=0.0231x elapsed=0:04:41.22    \nframe=  158 fps=0.6 q=27.6 size=    6400KiB time=00:00:06.50 bitrate=8066.0kbits/s speed=0.0231x elapsed=0:04:41.74    \nframe=  158 fps=0.6 q=27.6 size=    6400KiB time=00:00:06.50 bitrate=8066.0kbits/s speed=0.023x elapsed=0:04:42.26    \nframe=  159 fps=0.6 q=27.5 size=    6400KiB time=00:00:06.54 bitrate=8014.6kbits/s speed=0.0231x elapsed=0:04:42.78    \nframe=  159 fps=0.6 q=27.5 size=    6400KiB time=00:00:06.54 bitrate=8014.6kbits/s speed=0.0231x elapsed=0:04:43.33    \nframe=  160 fps=0.6 q=20.8 size=    6400KiB time=00:00:06.58 bitrate=7963.9kbits/s speed=0.0232x elapsed=0:04:43.85    \nframe=  160 fps=0.6 q=20.8 size=    6400KiB time=00:00:06.58 bitrate=7963.9kbits/s speed=0.0232x elapsed=0:04:44.36    \nframe=  160 fps=0.6 q=20.8 size=    6400KiB time=00:00:06.58 bitrate=7963.9kbits/s speed=0.0231x elapsed=0:04:44.88    \nframe=  161 fps=0.6 q=21.7 size=    6656KiB time=00:00:06.62 bitrate=8230.4kbits/s speed=0.0232x elapsed=0:04:45.41    \nframe=  162 fps=0.6 q=27.6 size=    6656KiB time=00:00:06.66 bitrate=8178.9kbits/s speed=0.0233x elapsed=0:04:45.92    \nframe=  163 fps=0.6 q=27.7 size=    6656KiB time=00:00:06.70 bitrate=8128.1kbits/s speed=0.0234x elapsed=0:04:46.45    \nframe=  163 fps=0.6 q=27.7 size=    6656KiB time=00:00:06.70 bitrate=8128.1kbits/s speed=0.0234x elapsed=0:04:46.99    \nframe=  163 fps=0.6 q=27.7 size=    6656KiB time=00:00:06.70 bitrate=8128.1kbits/s speed=0.0233x elapsed=0:04:47.52    \nframe=  163 fps=0.6 q=27.7 size=    6656KiB time=00:00:06.70 bitrate=8128.1kbits/s speed=0.0233x elapsed=0:04:48.05    \nframe=  164 fps=0.6 q=27.3 size=    6656KiB time=00:00:06.75 bitrate=8078.0kbits/s speed=0.0234x elapsed=0:04:48.59    \nframe=  164 fps=0.6 q=27.3 size=    6656KiB time=00:00:06.75 bitrate=8078.0kbits/s speed=0.0233x elapsed=0:04:49.12    \nframe=  165 fps=0.6 q=20.9 size=    6656KiB time=00:00:06.79 bitrate=8028.4kbits/s speed=0.0234x elapsed=0:04:49.64    \nframe=  165 fps=0.6 q=20.9 size=    6656KiB time=00:00:06.79 bitrate=8028.4kbits/s speed=0.0234x elapsed=0:04:50.16    \nframe=  166 fps=0.6 q=21.8 size=    6656KiB time=00:00:06.83 bitrate=7979.5kbits/s speed=0.0235x elapsed=0:04:50.68    \nframe=  167 fps=0.6 q=27.4 size=    6912KiB time=00:00:06.87 bitrate=8236.1kbits/s speed=0.0236x elapsed=0:04:51.20    \nframe=  167 fps=0.6 q=27.4 size=    6912KiB time=00:00:06.87 bitrate=8236.1kbits/s speed=0.0236x elapsed=0:04:51.72    \nframe=  168 fps=0.6 q=27.7 size=    6912KiB time=00:00:06.91 bitrate=8186.5kbits/s speed=0.0237x elapsed=0:04:52.25    \nframe=  168 fps=0.6 q=27.7 size=    6912KiB time=00:00:06.91 bitrate=8186.5kbits/s speed=0.0236x elapsed=0:04:52.77    \nframe=  168 fps=0.6 q=27.7 size=    6912KiB time=00:00:06.91 bitrate=8186.5kbits/s speed=0.0236x elapsed=0:04:53.31    \nframe=  169 fps=0.6 q=27.7 size=    6912KiB time=00:00:06.95 bitrate=8137.5kbits/s speed=0.0237x elapsed=0:04:53.83    \nframe=  169 fps=0.6 q=27.7 size=    6912KiB time=00:00:06.95 bitrate=8137.5kbits/s speed=0.0236x elapsed=0:04:54.34    \nframe=  170 fps=0.6 q=21.0 size=    6912KiB time=00:00:07.00 bitrate=8089.1kbits/s speed=0.0237x elapsed=0:04:54.86    \nframe=  170 fps=0.6 q=21.0 size=    6912KiB time=00:00:07.00 bitrate=8089.1kbits/s speed=0.0237x elapsed=0:04:55.39    \nframe=  170 fps=0.6 q=21.0 size=    6912KiB time=00:00:07.00 bitrate=8089.1kbits/s speed=0.0237x elapsed=0:04:55.91    \nframe=  171 fps=0.6 q=26.4 size=    6912KiB time=00:00:07.04 bitrate=8041.2kbits/s speed=0.0238x elapsed=0:04:56.44    \nframe=  172 fps=0.6 q=27.8 size=    6912KiB time=00:00:07.08 bitrate=7993.9kbits/s speed=0.0239x elapsed=0:04:56.96    \nframe=  173 fps=0.6 q=28.1 size=    6912KiB time=00:00:07.12 bitrate=7947.2kbits/s speed=0.024x elapsed=0:04:57.48    \nframe=  173 fps=0.6 q=28.1 size=    6912KiB time=00:00:07.12 bitrate=7947.2kbits/s speed=0.0239x elapsed=0:04:58.03    \nframe=  174 fps=0.6 q=27.6 size=    6912KiB time=00:00:07.16 bitrate=7900.9kbits/s speed=0.024x elapsed=0:04:58.55    \nframe=  174 fps=0.6 q=27.6 size=    6912KiB time=00:00:07.16 bitrate=7900.9kbits/s speed=0.024x elapsed=0:04:59.08    \nframe=  174 fps=0.6 q=27.6 size=    6912KiB time=00:00:07.16 bitrate=7900.9kbits/s speed=0.0239x elapsed=0:04:59.61    \nframe=  174 fps=0.6 q=27.6 size=    6912KiB time=00:00:07.16 bitrate=7900.9kbits/s speed=0.0239x elapsed=0:05:00.13    \nframe=  175 fps=0.6 q=21.0 size=    6912KiB time=00:00:07.20 bitrate=7855.3kbits/s speed=0.024x elapsed=0:05:00.66    \nframe=  175 fps=0.6 q=21.0 size=    6912KiB time=00:00:07.20 bitrate=7855.3kbits/s speed=0.0239x elapsed=0:05:01.18    \nframe=  175 fps=0.6 q=21.0 size=    6912KiB time=00:00:07.20 bitrate=7855.3kbits/s speed=0.0239x elapsed=0:05:01.72    \nframe=  176 fps=0.6 q=26.1 size=    7168KiB time=00:00:07.25 bitrate=8099.4kbits/s speed=0.024x elapsed=0:05:02.24    \nframe=  177 fps=0.6 q=27.4 size=    7168KiB time=00:00:07.29 bitrate=8053.1kbits/s speed=0.0241x elapsed=0:05:02.76    \nframe=  178 fps=0.6 q=27.7 size=    7168KiB time=00:00:07.33 bitrate=8007.4kbits/s speed=0.0242x elapsed=0:05:03.28    \nframe=  178 fps=0.6 q=27.7 size=    7168KiB time=00:00:07.33 bitrate=8007.4kbits/s speed=0.0241x elapsed=0:05:03.82    \nframe=  179 fps=0.6 q=27.6 size=    7168KiB time=00:00:07.37 bitrate=7962.1kbits/s speed=0.0242x elapsed=0:05:04.34    \nframe=  179 fps=0.6 q=27.6 size=    7168KiB time=00:00:07.37 bitrate=7962.1kbits/s speed=0.0242x elapsed=0:05:04.84    \nframe=  180 fps=0.6 q=21.1 size=    7168KiB time=00:00:07.41 bitrate=7917.4kbits/s speed=0.0243x elapsed=0:05:05.37    \nframe=  180 fps=0.6 q=21.1 size=    7168KiB time=00:00:07.41 bitrate=7917.4kbits/s speed=0.0242x elapsed=0:05:05.89    \nframe=  182 fps=0.6 q=27.2 size=    7424KiB time=00:00:07.50 bitrate=8109.0kbits/s speed=0.0245x elapsed=0:05:06.45    \nframe=  182 fps=0.6 q=27.2 size=    7424KiB time=00:00:07.50 bitrate=8109.0kbits/s speed=0.0244x elapsed=0:05:07.00    \nframe=  183 fps=0.6 q=27.0 size=    7424KiB time=00:00:07.54 bitrate=8064.2kbits/s speed=0.0245x elapsed=0:05:07.54    \nframe=  183 fps=0.6 q=27.0 size=    7424KiB time=00:00:07.54 bitrate=8064.2kbits/s speed=0.0245x elapsed=0:05:08.07    \nframe=  184 fps=0.6 q=20.8 size=    7424KiB time=00:00:07.58 bitrate=8019.9kbits/s speed=0.0246x elapsed=0:05:08.59    \nframe=  185 fps=0.6 q=24.5 size=    7424KiB time=00:00:07.62 bitrate=7976.1kbits/s speed=0.0247x elapsed=0:05:09.11    \nframe=  187 fps=0.6 q=26.9 size=    7424KiB time=00:00:07.70 bitrate=7889.9kbits/s speed=0.0249x elapsed=0:05:09.63    \nframe=  188 fps=0.6 q=20.5 size=    7424KiB time=00:00:07.75 bitrate=7847.5kbits/s speed=0.025x elapsed=0:05:10.14    \nframe=  190 fps=0.6 q=26.2 size=    7680KiB time=00:00:07.83 bitrate=8031.7kbits/s speed=0.0252x elapsed=0:05:10.67    \nframe=  191 fps=0.6 q=26.1 size=    7680KiB time=00:00:07.87 bitrate=7989.2kbits/s speed=0.0253x elapsed=0:05:11.19    \nframe=  193 fps=0.6 q=20.2 size=    7680KiB time=00:00:07.95 bitrate=7905.5kbits/s speed=0.0255x elapsed=0:05:11.71    \nframe=  194 fps=0.6 q=19.9 size=    7680KiB time=00:00:08.00 bitrate=7864.4kbits/s speed=0.0256x elapsed=0:05:12.22    \nframe=  196 fps=0.6 q=26.0 size=    7936KiB time=00:00:08.08 bitrate=8042.7kbits/s speed=0.0258x elapsed=0:05:12.74    \nframe=  197 fps=0.6 q=26.3 size=    7936KiB time=00:00:08.12 bitrate=8001.5kbits/s speed=0.0259x elapsed=0:05:13.25    \nframe=  198 fps=0.6 q=20.6 size=    7936KiB time=00:00:08.16 bitrate=7960.7kbits/s speed=0.026x elapsed=0:05:13.77    \nframe=  200 fps=0.6 q=27.1 size=    8192KiB time=00:00:08.25 bitrate=8134.5kbits/s speed=0.0262x elapsed=0:05:14.28    \nframe=  201 fps=0.6 q=27.4 size=    8192KiB time=00:00:08.29 bitrate=8093.6kbits/s speed=0.0263x elapsed=0:05:14.81    \nframe=  203 fps=0.6 q=20.7 size=    8192KiB time=00:00:08.37 bitrate=8013.0kbits/s speed=0.0266x elapsed=0:05:15.32    \nframe=  205 fps=0.6 q=27.4 size=    8192KiB time=00:00:08.45 bitrate=7934.1kbits/s speed=0.0268x elapsed=0:05:15.85    \nframe=  207 fps=0.7 q=26.6 size=    8192KiB time=00:00:08.54 bitrate=7856.7kbits/s speed=0.027x elapsed=0:05:16.37    \nframe=  208 fps=0.7 q=20.2 size=    8192KiB time=00:00:08.58 bitrate=7818.5kbits/s speed=0.0271x elapsed=0:05:16.88    \nframe=  210 fps=0.7 q=26.3 size=    8448KiB time=00:00:08.66 bitrate=7985.3kbits/s speed=0.0273x elapsed=0:05:17.39    \nframe=  212 fps=0.7 q=25.6 size=    8448KiB time=00:00:08.75 bitrate=7909.3kbits/s speed=0.0275x elapsed=0:05:17.91    \nframe=  214 fps=0.7 q=24.4 size=    8448KiB time=00:00:08.83 bitrate=7834.7kbits/s speed=0.0277x elapsed=0:05:18.42    \nframe=  216 fps=0.7 q=25.3 size=    8704KiB time=00:00:08.91 bitrate=7996.7kbits/s speed=0.028x elapsed=0:05:18.94    \nframe=  217 fps=0.7 q=25.6 size=    8704KiB time=00:00:08.95 bitrate=7959.5kbits/s speed=0.028x elapsed=0:05:19.46    \nframe=  219 fps=0.7 q=24.1 size=    8704KiB time=00:00:09.04 bitrate=7886.1kbits/s speed=0.0283x elapsed=0:05:19.98    \nframe=  221 fps=0.7 q=25.3 size=    8704KiB time=00:00:09.12 bitrate=7814.1kbits/s speed=0.0285x elapsed=0:05:20.49    \nframe=  223 fps=0.7 q=20.0 size=    8704KiB time=00:00:09.20 bitrate=7743.4kbits/s speed=0.0287x elapsed=0:05:21.00    \nframe=  225 fps=0.7 q=25.0 size=    8960KiB time=00:00:09.29 bitrate=7899.6kbits/s speed=0.0289x elapsed=0:05:21.51    \nframe=  226 fps=0.7 q=25.1 size=    8960KiB time=00:00:09.33 bitrate=7864.4kbits/s speed=0.029x elapsed=0:05:22.04    \nframe=  228 fps=0.7 q=22.2 size=    8960KiB time=00:00:09.41 bitrate=7794.8kbits/s speed=0.0292x elapsed=0:05:22.55    \nframe=  230 fps=0.7 q=24.5 size=    9216KiB time=00:00:09.50 bitrate=7947.1kbits/s speed=0.0294x elapsed=0:05:23.07    \nframe=  232 fps=0.7 q=20.6 size=    9216KiB time=00:00:09.58 bitrate=7878.0kbits/s speed=0.0296x elapsed=0:05:23.58    \nframe=  234 fps=0.7 q=25.1 size=    9216KiB time=00:00:09.66 bitrate=7810.1kbits/s speed=0.0298x elapsed=0:05:24.10    \nframe=  236 fps=0.7 q=24.4 size=    9216KiB time=00:00:09.75 bitrate=7743.4kbits/s speed=0.03x elapsed=0:05:24.61    \nframe=  237 fps=0.7 q=21.1 size=    9472KiB time=00:00:09.79 bitrate=7924.6kbits/s speed=0.0301x elapsed=0:05:25.13    \n[mp4 @ 000001fe1ac8b740] Starting second pass: moving the moov atom to the beginning of the file\n[out#0/mp4 @ 000001fe1ac8b640] video:9693KiB audio:0KiB subtitle:0KiB other streams:0KiB global headers:2KiB muxing overhead: 0.065143%\nframe=  240 fps=0.7 q=22.2 Lsize=    9700KiB time=00:00:09.91 bitrate=8012.6kbits/s speed=0.0305x elapsed=0:05:25.56    \nx265 [info]: frame I:      2, Avg QP:20.41  kb/s: 38664.38\nx265 [info]: frame P:     55, Avg QP:21.88  kb/s: 19443.93\nx265 [info]: frame B:    183, Avg QP:26.23  kb/s: 4146.67 \nx265 [info]: Weighted P-Frames: Y:0.0% UV:0.0%\n\nencoded 240 frames in 325.48s (0.74 fps), 7939.94 kb/s, Avg QP:25.19\n",
  "seconds": 325.69818449020386,
  "probe_out": {}
}